<?xml version="1.0" encoding="UTF-8" standalone="no"?>
<!-- Generator: Adobe Illustrator 19.0.0, SVG Export Plug-In . SVG Version: 6.00 Build 0)  -->

<svg
   xmlns:dc="http://purl.org/dc/elements/1.1/"
   xmlns:cc="http://creativecommons.org/ns#"
   xmlns:rdf="http://www.w3.org/1999/02/22-rdf-syntax-ns#"
   xmlns:svg="http://www.w3.org/2000/svg"
   xmlns="http://www.w3.org/2000/svg"
   xmlns:sodipodi="http://sodipodi.sourceforge.net/DTD/sodipodi-0.dtd"
   xmlns:inkscape="http://www.inkscape.org/namespaces/inkscape"
   version="1.1"
   id="Layer_1"
   x="0px"
   y="0px"
   viewBox="0 0 487.912 487.912"
   style="enable-background:new 0 0 487.912 487.912;"
   xml:space="preserve"
   inkscape:version="0.91 r13725"
   sodipodi:docname="barometer-dark.svg"><metadata
     id="metadata6488"><rdf:RDF><cc:Work
         rdf:about=""><dc:format>image/svg+xml</dc:format><dc:type
           rdf:resource="http://purl.org/dc/dcmitype/StillImage" /><dc:title /></cc:Work></rdf:RDF></metadata><defs
     id="defs6486" /><sodipodi:namedview
     pagecolor="#ffffff"
     bordercolor="#666666"
     borderopacity="1"
     objecttolerance="10"
     gridtolerance="10"
     guidetolerance="10"
     inkscape:pageopacity="0"
     inkscape:pageshadow="2"
     inkscape:window-width="1391"
     inkscape:window-height="876"
     id="namedview6484"
     showgrid="false"
     inkscape:zoom="0.48369379"
     inkscape:cx="-373.16997"
     inkscape:cy="243.95599"
     inkscape:window-x="49"
     inkscape:window-y="24"
     inkscape:window-maximized="1"
     inkscape:current-layer="Layer_1" /><g
     transform="translate(0 -572.36)"
     id="g6444"
     style="fill:#201a23;fill-opacity:1"><g
       id="g6446"
       style="fill:#201a23;fill-opacity:1"><g
         id="g6448"
         style="fill:#201a23;fill-opacity:1"><path
           d="M203.206,877.272c2.6,0,5.2-1,7.1-3l20.3-20.6c4,1.9,8.5,3,13.2,3c16.9,0,30.7-13.7,30.7-30.6c0-4.6-1.1-8.9-2.9-12.7     c0,0,0.1,0,0.1-0.1l23.5-23.9v6.2c0,5.5,4.5,10,10,10s10-4.5,10-10v-30.5c0-5.5-4.4-10-10-10h0h-30.7c-5.5,0-10,4.5-10,10     s4.5,10,10,10h6.7l-23.7,24.2c0,0,0,0-0.1,0.1c-4.1-2-8.7-3.1-13.5-3.1c-16.9,0-30.7,13.4-30.7,29.8c0,4.9,1.2,9.5,3.2,13.6     l-20.3,20.6c-3.9,3.9-3.8,10.3,0.1,14.1C198.106,876.272,200.706,877.272,203.206,877.272z M243.906,816.273     c5.8,0,10.7,4.5,10.7,9.8c0,6-4.7,10.6-10.7,10.6s-10.7-4.7-10.7-10.6C233.206,820.773,238.106,816.273,243.906,816.273z"
           id="path6450"
           style="fill:#201a23;fill-opacity:1" /><path
           d="M292.206,638.573L292.206,638.573c6.4-19.3,0.5-41.1-15.8-54.2c-18.1-16-46-16-64.9-0.1c-16.3,13.1-22.3,35-15.9,54.3     c-95.2,21.8-166.4,106.8-166.4,208.1c0,117.8,96.3,213.6,214.7,213.6s214.8-95.8,214.8-213.6     C458.706,745.372,387.406,660.372,292.206,638.573z M224.106,599.773L224.106,599.773c0.1-0.1,0.2-0.1,0.2-0.2     c11.5-9.7,28.3-9.8,39-0.2c0.1,0.1,0.3,0.2,0.4,0.4c10.5,8.4,13.8,23,8.4,35.1c-9.2-1.2-18.7-1.8-28.2-1.8s-19,0.6-28.2,1.8     C210.206,622.773,213.506,608.172,224.106,599.773z M243.906,1040.272c-78.3,0-146-46.2-176.9-112.7h53.4h246.9h53.4     C389.906,994.072,322.206,1040.272,243.906,1040.272z M157.506,745.372c50.1-41.3,122.8-41.3,172.9,0     c47.7,39.3,60.4,106.7,31.1,162.2h-235.2C97.106,852.073,109.706,784.672,157.506,745.372z M428.006,907.672h-44.3     c12.1-27.4,16.2-57.8,11.3-87.3c-5.8-35.5-24.3-67.6-51.9-90.4c-57.5-47.3-140.8-47.3-198.3,0c-27.6,22.8-46.1,54.9-51.9,90.4     c-4.9,29.5-0.8,59.9,11.3,87.3h-45.2c-6.4-19.2-9.9-39.6-9.9-60.9c0.1-106.8,87.4-193.7,194.8-193.7v0     c107.4,0,194.8,86.8,194.8,193.6c0,21.3-3.5,41.8-9.9,61C428.506,907.672,428.306,907.672,428.006,907.672z"
           id="path6452"
           style="fill:#201a23;fill-opacity:1" /></g></g></g><g
     id="g6454" /><g
     id="g6456" /><g
     id="g6458" /><g
     id="g6460" /><g
     id="g6462" /><g
     id="g6464" /><g
     id="g6466" /><g
     id="g6468" /><g
     id="g6470" /><g
     id="g6472" /><g
     id="g6474" /><g
     id="g6476" /><g
     id="g6478" /><g
     id="g6480" /><g
     id="g6482" /></svg>