<?xml version="1.0" encoding="UTF-8" standalone="no"?>
<!-- Generator: Adobe Illustrator 19.0.0, SVG Export Plug-In . SVG Version: 6.00 Build 0)  -->

<svg
   xmlns:dc="http://purl.org/dc/elements/1.1/"
   xmlns:cc="http://creativecommons.org/ns#"
   xmlns:rdf="http://www.w3.org/1999/02/22-rdf-syntax-ns#"
   xmlns:svg="http://www.w3.org/2000/svg"
   xmlns="http://www.w3.org/2000/svg"
   xmlns:sodipodi="http://sodipodi.sourceforge.net/DTD/sodipodi-0.dtd"
   xmlns:inkscape="http://www.inkscape.org/namespaces/inkscape"
   version="1.1"
   id="Layer_1"
   x="0px"
   y="0px"
   viewBox="0 0 512 512"
   style="enable-background:new 0 0 512 512;"
   xml:space="preserve"
   inkscape:version="0.91 r13725"
   sodipodi:docname="celsius-brown.svg"><metadata
     id="metadata65"><rdf:RDF><cc:Work
         rdf:about=""><dc:format>image/svg+xml</dc:format><dc:type
           rdf:resource="http://purl.org/dc/dcmitype/StillImage" /><dc:title></dc:title></cc:Work></rdf:RDF></metadata><defs
     id="defs63" /><sodipodi:namedview
     pagecolor="#ffffff"
     bordercolor="#666666"
     borderopacity="1"
     objecttolerance="10"
     gridtolerance="10"
     guidetolerance="10"
     inkscape:pageopacity="0"
     inkscape:pageshadow="2"
     inkscape:window-width="1391"
     inkscape:window-height="876"
     id="namedview61"
     showgrid="false"
     inkscape:zoom="0.4609375"
     inkscape:cx="-2.1694915"
     inkscape:cy="256"
     inkscape:window-x="49"
     inkscape:window-y="24"
     inkscape:window-maximized="1"
     inkscape:current-layer="Layer_1" /><g
     id="g3"
     style="stroke:none;stroke-opacity:1;fill:#61210f;fill-opacity:1"><g
       id="g5"
       style="stroke:none;stroke-opacity:1;fill:#61210f;fill-opacity:1"><g
         id="g7"
         style="stroke:none;stroke-opacity:1;fill:#61210f;fill-opacity:1"><path
           d="M234.667,53.333C234.667,23.927,210.74,0,181.333,0S128,23.927,128,53.333v332.073     c-13.615,13.958-21.333,32.625-21.333,51.927c0,41.167,33.5,74.667,74.667,74.667C222.5,512,256,478.5,256,437.333     c0-19.302-7.719-37.969-21.333-51.927V53.333z M181.333,490.667c-29.406,0-53.333-23.927-53.333-53.333     c0-15.104,6.323-29.125,17.813-39.469c2.24-2.031,3.521-4.906,3.521-7.927V53.333c0-17.646,14.354-32,32-32     c17.646,0,32,14.354,32,32v336.604c0,3.021,1.281,5.896,3.521,7.927c11.49,10.344,17.813,24.365,17.813,39.469     C234.667,466.74,210.74,490.667,181.333,490.667z"
           id="path9"
           style="stroke:none;stroke-opacity:1;fill:#61210f;fill-opacity:1" /><path
           d="M192,407.298V224c0-5.896-4.771-10.667-10.667-10.667c-5.896,0-10.667,4.771-10.667,10.667v183.298     c-12.389,4.418-21.333,16.147-21.333,30.035c0,17.646,14.354,32,32,32c17.646,0,32-14.354,32-32     C213.333,423.445,204.389,411.716,192,407.298z M181.333,448c-5.885,0-10.667-4.781-10.667-10.667     c0-5.885,4.781-10.667,10.667-10.667c5.885,0,10.667,4.781,10.667,10.667C192,443.219,187.219,448,181.333,448z"
           id="path11"
           style="stroke:none;stroke-opacity:1;fill:#61210f;fill-opacity:1" /><path
           d="M96,341.333H32c-5.896,0-10.667,4.771-10.667,10.667c0,5.896,4.771,10.667,10.667,10.667h64     c5.896,0,10.667-4.771,10.667-10.667C106.667,346.104,101.896,341.333,96,341.333z"
           id="path13"
           style="stroke:none;stroke-opacity:1;fill:#61210f;fill-opacity:1" /><path
           d="M96,298.667H74.667c-5.896,0-10.667,4.771-10.667,10.667C64,315.229,68.771,320,74.667,320H96     c5.896,0,10.667-4.771,10.667-10.667C106.667,303.438,101.896,298.667,96,298.667z"
           id="path15"
           style="stroke:none;stroke-opacity:1;fill:#61210f;fill-opacity:1" /><path
           d="M96,256H74.667C68.771,256,64,260.771,64,266.667c0,5.896,4.771,10.667,10.667,10.667H96     c5.896,0,10.667-4.771,10.667-10.667C106.667,260.771,101.896,256,96,256z"
           id="path17"
           style="stroke:none;stroke-opacity:1;fill:#61210f;fill-opacity:1" /><path
           d="M32,234.667h64c5.896,0,10.667-4.771,10.667-10.667S101.896,213.333,96,213.333H32c-5.896,0-10.667,4.771-10.667,10.667     S26.104,234.667,32,234.667z"
           id="path19"
           style="stroke:none;stroke-opacity:1;fill:#61210f;fill-opacity:1" /><path
           d="M32,106.667h64c5.896,0,10.667-4.771,10.667-10.667S101.896,85.333,96,85.333H32c-5.896,0-10.667,4.771-10.667,10.667     S26.104,106.667,32,106.667z"
           id="path21"
           style="stroke:none;stroke-opacity:1;fill:#61210f;fill-opacity:1" /><path
           d="M96,170.667H74.667c-5.896,0-10.667,4.771-10.667,10.667C64,187.229,68.771,192,74.667,192H96     c5.896,0,10.667-4.771,10.667-10.667C106.667,175.438,101.896,170.667,96,170.667z"
           id="path23"
           style="stroke:none;stroke-opacity:1;fill:#61210f;fill-opacity:1" /><path
           d="M96,128H74.667C68.771,128,64,132.771,64,138.667c0,5.896,4.771,10.667,10.667,10.667H96     c5.896,0,10.667-4.771,10.667-10.667C106.667,132.771,101.896,128,96,128z"
           id="path25"
           style="stroke:none;stroke-opacity:1;fill:#61210f;fill-opacity:1" /><path
           d="M330.667,170.667H352c17.646,0,32,14.354,32,32c0,5.896,4.771,10.667,10.667,10.667s10.667-4.771,10.667-10.667     c0-29.406-23.927-53.333-53.333-53.333h-21.333c-29.406,0-53.333,23.927-53.333,53.333V288c0,29.406,23.927,53.333,53.333,53.333     H352c29.406,0,53.333-23.927,53.333-53.333c0-5.896-4.771-10.667-10.667-10.667S384,282.104,384,288c0,17.646-14.354,32-32,32     h-21.333c-17.646,0-32-14.354-32-32v-85.333C298.667,185.021,313.021,170.667,330.667,170.667z"
           id="path27"
           style="stroke:none;stroke-opacity:1;fill:#61210f;fill-opacity:1" /><path
           d="M458.667,149.333c-17.646,0-32,14.354-32,32c0,17.646,14.354,32,32,32s32-14.354,32-32     C490.667,163.688,476.313,149.333,458.667,149.333z M458.667,192c-5.885,0-10.667-4.781-10.667-10.667     c0-5.885,4.781-10.667,10.667-10.667s10.667,4.781,10.667,10.667C469.333,187.219,464.552,192,458.667,192z"
           id="path29"
           style="stroke:none;stroke-opacity:1;fill:#61210f;fill-opacity:1" /></g></g></g><g
     id="g31" /><g
     id="g33" /><g
     id="g35" /><g
     id="g37" /><g
     id="g39" /><g
     id="g41" /><g
     id="g43" /><g
     id="g45" /><g
     id="g47" /><g
     id="g49" /><g
     id="g51" /><g
     id="g53" /><g
     id="g55" /><g
     id="g57" /><g
     id="g59" /></svg>