<?xml version="1.0" encoding="UTF-8" standalone="no"?>
<!-- Generator: Adobe Illustrator 19.0.0, SVG Export Plug-In . SVG Version: 6.00 Build 0)  -->

<svg
   xmlns:dc="http://purl.org/dc/elements/1.1/"
   xmlns:cc="http://creativecommons.org/ns#"
   xmlns:rdf="http://www.w3.org/1999/02/22-rdf-syntax-ns#"
   xmlns:svg="http://www.w3.org/2000/svg"
   xmlns="http://www.w3.org/2000/svg"
   xmlns:sodipodi="http://sodipodi.sourceforge.net/DTD/sodipodi-0.dtd"
   xmlns:inkscape="http://www.inkscape.org/namespaces/inkscape"
   version="1.1"
   id="Capa_1"
   x="0px"
   y="0px"
   viewBox="0 0 60 60"
   style="enable-background:new 0 0 60 60;"
   xml:space="preserve"
   inkscape:version="0.91 r13725"
   sodipodi:docname="cloud-draft.svg"><metadata
     id="metadata4278"><rdf:RDF><cc:Work
         rdf:about=""><dc:format>image/svg+xml</dc:format><dc:type
           rdf:resource="http://purl.org/dc/dcmitype/StillImage" /><dc:title></dc:title></cc:Work></rdf:RDF></metadata><defs
     id="defs4276" /><sodipodi:namedview
     pagecolor="#ffffff"
     bordercolor="#666666"
     borderopacity="1"
     objecttolerance="10"
     gridtolerance="10"
     guidetolerance="10"
     inkscape:pageopacity="0"
     inkscape:pageshadow="2"
     inkscape:window-width="1551"
     inkscape:window-height="876"
     id="namedview4274"
     showgrid="true"
     inkscape:snap-grids="true"
     showguides="true"
     inkscape:guide-bbox="true"
     inkscape:zoom="8.7091985"
     inkscape:cx="22.586036"
     inkscape:cy="-53.342089"
     inkscape:window-x="1489"
     inkscape:window-y="24"
     inkscape:window-maximized="1"
     inkscape:current-layer="Capa_1"><inkscape:grid
       type="xygrid"
       id="grid4292" /><sodipodi:guide
       position="0,120"
       orientation="1,0"
       id="guide4294" /><sodipodi:guide
       position="60,100"
       orientation="1,0"
       id="guide4296" /><sodipodi:guide
       position="-37.431688,60"
       orientation="0,1"
       id="guide4298" /><sodipodi:guide
       position="-113.01759,10"
       orientation="0,1"
       id="guide4300" /><sodipodi:guide
       position="-117,110"
       orientation="0,1"
       id="guide4302" /><sodipodi:guide
       position="-10,-50"
       orientation="0,1"
       id="guide4614" /><sodipodi:guide
       position="-26,-80"
       orientation="0,1"
       id="guide4616" /></sodipodi:namedview><path
     d="M50.976,26.194C50.447,17.194,43.028,10,34.085,10c-5.43,0-10.688,2.663-13.946,7.008c-0.075-0.039-0.154-0.066-0.23-0.102  c-0.198-0.096-0.399-0.187-0.604-0.269c-0.114-0.045-0.228-0.086-0.343-0.126c-0.203-0.071-0.409-0.134-0.619-0.191  c-0.115-0.031-0.229-0.063-0.345-0.089c-0.225-0.051-0.455-0.09-0.687-0.125c-0.101-0.015-0.2-0.035-0.302-0.046  C16.677,16.023,16.341,16,16,16c-4.963,0-9,4.037-9,9c0,0.127,0.008,0.252,0.016,0.377v0.004C2.857,27.649,0,32.399,0,37.154  C0,44.237,5.762,50,12.845,50h24.508c0.104,0,0.207-0.006,0.311-0.014l0.062-0.008l0.134,0.008C37.962,49.994,38.064,50,38.169,50  h9.803C54.604,50,60,44.604,60,37.972C60,32.483,56.173,27.56,50.976,26.194z M47.972,48h-9.803c-0.059,0-0.116-0.005-0.174-0.009  l-0.271-0.011l-0.198,0.011C37.469,47.995,37.411,48,37.353,48H12.845C6.865,48,2,43.135,2,37.154C2,33,4.705,28.688,8.433,26.901  L9,26.63V26c0-0.127,0.008-0.256,0.015-0.386l0.009-0.16l-0.012-0.21C9.006,25.163,9,25.082,9,25c0-3.859,3.141-7,7-7  c0.309,0,0.614,0.027,0.917,0.067c0.078,0.01,0.156,0.023,0.233,0.036c0.267,0.044,0.53,0.102,0.789,0.177  c0.035,0.01,0.071,0.017,0.106,0.027c0.285,0.087,0.563,0.197,0.835,0.321c0.071,0.032,0.14,0.067,0.21,0.101  c0.24,0.119,0.475,0.249,0.702,0.396C21.719,20.373,23,22.538,23,25c0,0.553,0.447,1,1,1s1-0.447,1-1c0-2.754-1.246-5.219-3.2-6.871  C24.667,14.379,29.388,12,34.085,12c7.745,0,14.177,6.135,14.848,13.888c-1.022-0.072-2.552-0.109-4.083,0.124  c-0.546,0.083-0.921,0.593-0.838,1.139c0.075,0.495,0.501,0.85,0.987,0.85c0.05,0,0.101-0.004,0.151-0.012  c2.227-0.337,4.548-0.021,4.684-0.002C54.49,28.872,58,33.161,58,37.972C58,43.501,53.501,48,47.972,48z"
     id="path4242" /><g
     id="g4244" /><g
     id="g4246" /><g
     id="g4248" /><g
     id="g4250" /><g
     id="g4252" /><g
     id="g4254" /><g
     id="g4256" /><g
     id="g4258" /><g
     id="g4260" /><g
     id="g4262" /><g
     id="g4264" /><g
     id="g4266" /><g
     id="g4268" /><g
     id="g4270" /><g
     id="g4272" /><path
     style="opacity:1;fill:#ffffff;fill-opacity:1;stroke:#000000;stroke-width:2;stroke-linecap:round;stroke-linejoin:round;stroke-miterlimit:4;stroke-dasharray:none;stroke-opacity:1"
     id="path4280"
     sodipodi:type="arc"
     sodipodi:cx="13.498467"
     sodipodi:cy="-12.396996"
     sodipodi:rx="13.519156"
     sodipodi:ry="12.391982"
     sodipodi:start="1.5044738"
     sodipodi:end="3.97586"
     d="M 14.394435,-0.03225764 A 13.519156,12.391982 0 0 1 1.0540184,-7.5550621 13.519156,12.391982 0 0 1 4.4173713,-21.577033"
     sodipodi:open="true" /><path
     id="ellipse4284"
     style="opacity:1;fill:#ffffff;fill-opacity:1;stroke:#000000;stroke-width:2;stroke-linecap:round;stroke-linejoin:round;stroke-miterlimit:4;stroke-dasharray:none;stroke-opacity:1"
     transform="scale(-1,1)"
     sodipodi:type="arc"
     sodipodi:cx="-30.303745"
     sodipodi:cy="-21.404753"
     sodipodi:rx="18.025543"
     sodipodi:ry="19.827171"
     sodipodi:start="3.5849063"
     sodipodi:end="5.5937803"
     d="m -46.586855,-29.909323 a 18.025543,19.827171 0 0 1 14.070737,-11.172696 18.025543,19.827171 0 0 1 16.121326,7.065635"
     sodipodi:open="true" /><path
     id="ellipse4286"
     style="opacity:1;fill:#ffffff;fill-opacity:1;stroke:#000000;stroke-width:2;stroke-linecap:round;stroke-linejoin:round;stroke-miterlimit:4;stroke-dasharray:none;stroke-opacity:1"
     transform="scale(-1,-1)"
     sodipodi:type="arc"
     sodipodi:cx="-46.524109"
     sodipodi:cy="14.899651"
     sodipodi:rx="13.519156"
     sodipodi:ry="14.870378"
     sodipodi:start="1.1833332"
     sodipodi:end="4.7158796"
     d="M -41.41602,28.667696 A 13.519156,14.870378 0 0 1 -56.127984,25.365543 13.519156,14.870378 0 0 1 -58.993009,9.1531024 13.519156,14.870378 0 0 1 -46.476919,0.02936363"
     sodipodi:open="true" /><path
     id="ellipse4288"
     style="opacity:1;fill:#ffffff;fill-opacity:1;stroke:#000000;stroke-width:2;stroke-linecap:round;stroke-linejoin:round;stroke-miterlimit:4;stroke-dasharray:none;stroke-opacity:1"
     sodipodi:type="arc"
     sodipodi:cx="13.50758"
     sodipodi:cy="-24.708504"
     sodipodi:rx="9.5206804"
     sodipodi:ry="9.9031143"
     sodipodi:start="2.8239427"
     sodipodi:end="6.0475659"
     d="m 4.4631996,-21.615415 a 9.5206804,9.9031143 0 0 1 2.1230904,-9.893208 9.5206804,9.9031143 0 0 1 9.374721,-2.76853 9.5206804,9.9031143 0 0 1 6.804192,7.256814"
     sodipodi:open="true" /><rect
     style="opacity:1;fill:#ffffff;fill-opacity:1;stroke:#000000;stroke-width:2;stroke-linecap:round;stroke-linejoin:round;stroke-miterlimit:4;stroke-dasharray:none;stroke-opacity:1"
     id="rect4290"
     width="33.41"
     height="9.0709457"
     x="-36.341209"
     y="20.684769"
     ry="0" /><ellipse
     ry="12.391982"
     rx="13.519156"
     cy="-12.396996"
     cx="100.21934"
     id="ellipse4304"
     style="opacity:1;fill:#201a23;fill-opacity:1;stroke:none;stroke-width:2;stroke-linecap:round;stroke-linejoin:round;stroke-miterlimit:4;stroke-dasharray:none;stroke-opacity:1" /><ellipse
     ry="19.827171"
     rx="18.025543"
     transform="scale(1,-1)"
     style="opacity:1;fill:#201a23;fill-opacity:1;stroke:none;stroke-width:2;stroke-linecap:round;stroke-linejoin:round;stroke-miterlimit:4;stroke-dasharray:none;stroke-opacity:1"
     id="ellipse4306"
     cx="117.02462"
     cy="21.404753" /><ellipse
     ry="14.870378"
     rx="13.519156"
     style="opacity:1;fill:#201a23;fill-opacity:1;stroke:none;stroke-width:2;stroke-linecap:round;stroke-linejoin:round;stroke-miterlimit:4;stroke-dasharray:none;stroke-opacity:1"
     id="ellipse4308"
     cx="133.24498"
     cy="-14.899651" /><ellipse
     style="opacity:1;fill:#201a23;fill-opacity:1;stroke:none;stroke-width:2;stroke-linecap:round;stroke-linejoin:round;stroke-miterlimit:4;stroke-dasharray:none;stroke-opacity:1"
     id="ellipse4310"
     cx="100.22845"
     cy="-24.708504"
     rx="9.5206804"
     ry="9.9031143" /><rect
     ry="0.61382639"
     y="-9.1096821"
     x="100.20612"
     height="9.0709457"
     width="33.40979"
     id="rect4312"
     style="opacity:1;fill:#201a23;fill-opacity:1;stroke:none;stroke-width:2;stroke-linecap:round;stroke-linejoin:round;stroke-miterlimit:4;stroke-dasharray:none;stroke-opacity:1" /><ellipse
     style="opacity:1;fill:#201a23;fill-opacity:1;stroke:none;stroke-width:2;stroke-linecap:round;stroke-linejoin:round;stroke-miterlimit:4;stroke-dasharray:none;stroke-opacity:1"
     id="ellipse4314"
     cx="100.21934"
     cy="-12.396996"
     rx="13.519156"
     ry="12.391982" /><ellipse
     cy="21.404753"
     cx="117.02462"
     id="ellipse4316"
     style="opacity:1;fill:#201a23;fill-opacity:1;stroke:none;stroke-width:2;stroke-linecap:round;stroke-linejoin:round;stroke-miterlimit:4;stroke-dasharray:none;stroke-opacity:1"
     transform="scale(1,-1)"
     rx="18.025543"
     ry="19.827171" /><ellipse
     cy="-14.899651"
     cx="133.24498"
     id="ellipse4318"
     style="opacity:1;fill:#201a23;fill-opacity:1;stroke:none;stroke-width:2;stroke-linecap:round;stroke-linejoin:round;stroke-miterlimit:4;stroke-dasharray:none;stroke-opacity:1"
     rx="13.519156"
     ry="14.870378" /><ellipse
     ry="9.9031143"
     rx="9.5206804"
     cy="-24.708504"
     cx="100.22845"
     id="ellipse4320"
     style="opacity:1;fill:#201a23;fill-opacity:1;stroke:none;stroke-width:2;stroke-linecap:round;stroke-linejoin:round;stroke-miterlimit:4;stroke-dasharray:none;stroke-opacity:1" /><rect
     style="opacity:1;fill:#201a23;fill-opacity:1;stroke:none;stroke-width:2;stroke-linecap:round;stroke-linejoin:round;stroke-miterlimit:4;stroke-dasharray:none;stroke-opacity:1"
     id="rect4322"
     width="33.40979"
     height="9.0709457"
     x="100.20612"
     y="-9.1096821"
     ry="0.61382639" /><ellipse
     style="opacity:1;fill:#201a23;fill-opacity:1;stroke:none;stroke-width:2;stroke-linecap:round;stroke-linejoin:round;stroke-miterlimit:4;stroke-dasharray:none;stroke-opacity:1"
     id="ellipse4324"
     cx="100.72648"
     cy="38.063393"
     rx="13.519156"
     ry="12.391982" /><ellipse
     cy="-29.055637"
     cx="117.53176"
     id="ellipse4326"
     style="opacity:1;fill:#201a23;fill-opacity:1;stroke:none;stroke-width:2;stroke-linecap:round;stroke-linejoin:round;stroke-miterlimit:4;stroke-dasharray:none;stroke-opacity:1"
     transform="scale(1,-1)"
     rx="18.025543"
     ry="19.827171" /><ellipse
     cy="35.560738"
     cx="133.75212"
     id="ellipse4328"
     style="opacity:1;fill:#201a23;fill-opacity:1;stroke:none;stroke-width:2;stroke-linecap:round;stroke-linejoin:round;stroke-miterlimit:4;stroke-dasharray:none;stroke-opacity:1"
     rx="13.519156"
     ry="14.870378" /><ellipse
     ry="9.9031143"
     rx="9.5206804"
     cy="25.751886"
     cx="100.73559"
     id="ellipse4330"
     style="opacity:1;fill:#201a23;fill-opacity:1;stroke:none;stroke-width:2;stroke-linecap:round;stroke-linejoin:round;stroke-miterlimit:4;stroke-dasharray:none;stroke-opacity:1" /><rect
     style="opacity:1;fill:#201a23;fill-opacity:1;stroke:none;stroke-width:2;stroke-linecap:round;stroke-linejoin:round;stroke-miterlimit:4;stroke-dasharray:none;stroke-opacity:1"
     id="rect4332"
     width="33.40979"
     height="9.0709457"
     x="100.71326"
     y="41.350708"
     ry="0.61382639" /><ellipse
     ry="12.391982"
     rx="13.519156"
     cy="38.063393"
     cx="100.72648"
     id="ellipse4334"
     style="opacity:1;fill:#201a23;fill-opacity:1;stroke:none;stroke-width:2;stroke-linecap:round;stroke-linejoin:round;stroke-miterlimit:4;stroke-dasharray:none;stroke-opacity:1" /><ellipse
     ry="19.827171"
     rx="18.025543"
     transform="scale(1,-1)"
     style="opacity:1;fill:#201a23;fill-opacity:1;stroke:none;stroke-width:2;stroke-linecap:round;stroke-linejoin:round;stroke-miterlimit:4;stroke-dasharray:none;stroke-opacity:1"
     id="ellipse4336"
     cx="117.53176"
     cy="-29.055637" /><ellipse
     ry="14.870378"
     rx="13.519156"
     style="opacity:1;fill:#201a23;fill-opacity:1;stroke:none;stroke-width:2;stroke-linecap:round;stroke-linejoin:round;stroke-miterlimit:4;stroke-dasharray:none;stroke-opacity:1"
     id="ellipse4338"
     cx="133.75212"
     cy="35.560738" /><ellipse
     style="opacity:1;fill:#201a23;fill-opacity:1;stroke:none;stroke-width:2;stroke-linecap:round;stroke-linejoin:round;stroke-miterlimit:4;stroke-dasharray:none;stroke-opacity:1"
     id="ellipse4340"
     cx="100.73559"
     cy="25.751886"
     rx="9.5206804"
     ry="9.9031143" /><rect
     ry="0.61382639"
     y="41.350708"
     x="100.71326"
     height="9.0709457"
     width="33.40979"
     id="rect4342"
     style="opacity:1;fill:#201a23;fill-opacity:1;stroke:none;stroke-width:2;stroke-linecap:round;stroke-linejoin:round;stroke-miterlimit:4;stroke-dasharray:none;stroke-opacity:1" /><path
     style="fill:none;fill-rule:evenodd;stroke:#000000;stroke-width:2.05596852;stroke-linecap:butt;stroke-linejoin:miter;stroke-miterlimit:4;stroke-dasharray:none;stroke-opacity:1"
     d="M 13.858936,0 46.910412,0"
     id="path4344"
     inkscape:connector-curvature="0" /><path
     sodipodi:open="true"
     d="M 14.394435,-0.03225764 A 13.519156,12.391982 0 0 1 1.0540184,-7.5550621 13.519156,12.391982 0 0 1 4.4173713,-21.577033"
     sodipodi:end="3.97586"
     sodipodi:start="1.5044738"
     sodipodi:ry="12.391982"
     sodipodi:rx="13.519156"
     sodipodi:cy="-12.396996"
     sodipodi:cx="13.498467"
     sodipodi:type="arc"
     id="path4346"
     style="opacity:1;fill:#ffffff;fill-opacity:1;stroke:#000000;stroke-width:2;stroke-linecap:round;stroke-linejoin:round;stroke-miterlimit:4;stroke-dasharray:none;stroke-opacity:1" /><path
     sodipodi:open="true"
     d="m -46.586855,-29.909323 a 18.025543,19.827171 0 0 1 14.070737,-11.172696 18.025543,19.827171 0 0 1 16.121326,7.065635"
     sodipodi:end="5.5937803"
     sodipodi:start="3.5849063"
     sodipodi:ry="19.827171"
     sodipodi:rx="18.025543"
     sodipodi:cy="-21.404753"
     sodipodi:cx="-30.303745"
     sodipodi:type="arc"
     transform="scale(-1,1)"
     style="opacity:1;fill:#ffffff;fill-opacity:1;stroke:#000000;stroke-width:2;stroke-linecap:round;stroke-linejoin:round;stroke-miterlimit:4;stroke-dasharray:none;stroke-opacity:1"
     id="path4348" /><path
     sodipodi:open="true"
     d="M -41.41602,28.667696 A 13.519156,14.870378 0 0 1 -56.127984,25.365543 13.519156,14.870378 0 0 1 -58.993009,9.1531024 13.519156,14.870378 0 0 1 -46.476919,0.02936363"
     sodipodi:end="4.7158796"
     sodipodi:start="1.1833332"
     sodipodi:ry="14.870378"
     sodipodi:rx="13.519156"
     sodipodi:cy="14.899651"
     sodipodi:cx="-46.524109"
     sodipodi:type="arc"
     transform="scale(-1,-1)"
     style="opacity:1;fill:#ffffff;fill-opacity:1;stroke:#000000;stroke-width:2;stroke-linecap:round;stroke-linejoin:round;stroke-miterlimit:4;stroke-dasharray:none;stroke-opacity:1"
     id="path4350" /><path
     sodipodi:open="true"
     d="m 4.4631996,-21.615415 a 9.5206804,9.9031143 0 0 1 2.1230904,-9.893208 9.5206804,9.9031143 0 0 1 9.374721,-2.76853 9.5206804,9.9031143 0 0 1 6.804192,7.256814"
     sodipodi:end="6.0475659"
     sodipodi:start="2.8239427"
     sodipodi:ry="9.9031143"
     sodipodi:rx="9.5206804"
     sodipodi:cy="-24.708504"
     sodipodi:cx="13.50758"
     sodipodi:type="arc"
     style="opacity:1;fill:#ffffff;fill-opacity:1;stroke:#000000;stroke-width:2;stroke-linecap:round;stroke-linejoin:round;stroke-miterlimit:4;stroke-dasharray:none;stroke-opacity:1"
     id="path4352" /><path
     inkscape:connector-curvature="0"
     id="path4354"
     d="M 13.858936,0 46.910412,0"
     style="fill:none;fill-rule:evenodd;stroke:#000000;stroke-width:2.05596852;stroke-linecap:butt;stroke-linejoin:miter;stroke-miterlimit:4;stroke-dasharray:none;stroke-opacity:1" /><path
     sodipodi:open="true"
     d="m 178.63408,-3.2596746 a 13.519156,12.391982 0 0 1 -13.34042,-7.5228044 13.519156,12.391982 0 0 1 3.36336,-14.021971"
     sodipodi:end="3.97586"
     sodipodi:start="1.5044738"
     sodipodi:ry="12.391982"
     sodipodi:rx="13.519156"
     sodipodi:cy="-15.624413"
     sodipodi:cx="177.73811"
     sodipodi:type="arc"
     id="path4356"
     style="opacity:1;fill:#ffffff;fill-opacity:1;stroke:#000000;stroke-width:2;stroke-linecap:round;stroke-linejoin:round;stroke-miterlimit:4;stroke-dasharray:none;stroke-opacity:1" /><path
     sodipodi:open="true"
     d="m -210.82651,-33.13674 a 18.025543,19.827171 0 0 1 14.07074,-11.172696 18.025543,19.827171 0 0 1 16.12133,7.065635"
     sodipodi:end="5.5937803"
     sodipodi:start="3.5849063"
     sodipodi:ry="19.827171"
     sodipodi:rx="18.025543"
     sodipodi:cy="-24.63217"
     sodipodi:cx="-194.5434"
     sodipodi:type="arc"
     transform="scale(-1,1)"
     style="opacity:1;fill:#ffffff;fill-opacity:1;stroke:#000000;stroke-width:2;stroke-linecap:round;stroke-linejoin:round;stroke-miterlimit:4;stroke-dasharray:none;stroke-opacity:1"
     id="path4358" /><path
     sodipodi:open="true"
     d="m -205.65566,31.895113 a 13.519156,14.870378 0 0 1 -14.71196,-3.302153 13.519156,14.870378 0 0 1 -2.86503,-16.212441 13.519156,14.870378 0 0 1 12.51609,-9.1237384"
     sodipodi:end="4.7158796"
     sodipodi:start="1.1833332"
     sodipodi:ry="14.870378"
     sodipodi:rx="13.519156"
     sodipodi:cy="18.127068"
     sodipodi:cx="-210.76375"
     sodipodi:type="arc"
     transform="scale(-1,-1)"
     style="opacity:1;fill:#ffffff;fill-opacity:1;stroke:#000000;stroke-width:2;stroke-linecap:round;stroke-linejoin:round;stroke-miterlimit:4;stroke-dasharray:none;stroke-opacity:1"
     id="path4360" /><path
     sodipodi:open="true"
     d="m 168.70284,-24.842832 a 9.5206804,9.9031143 0 0 1 2.12309,-9.893208 9.5206804,9.9031143 0 0 1 9.37472,-2.76853 9.5206804,9.9031143 0 0 1 6.8042,7.256814"
     sodipodi:end="6.0475659"
     sodipodi:start="2.8239427"
     sodipodi:ry="9.9031143"
     sodipodi:rx="9.5206804"
     sodipodi:cy="-27.935921"
     sodipodi:cx="177.74722"
     sodipodi:type="arc"
     style="opacity:1;fill:#ffffff;fill-opacity:1;stroke:#000000;stroke-width:2;stroke-linecap:round;stroke-linejoin:round;stroke-miterlimit:4;stroke-dasharray:none;stroke-opacity:1"
     id="path4362" /><path
     inkscape:connector-curvature="0"
     id="path4364"
     d="m 178.09858,-3.2274166 33.05148,0"
     style="fill:none;fill-rule:evenodd;stroke:#000000;stroke-width:2.05596852;stroke-linecap:butt;stroke-linejoin:miter;stroke-miterlimit:4;stroke-dasharray:none;stroke-opacity:1" /><path
     style="opacity:1;fill:#ffffff;fill-opacity:1;stroke:#000000;stroke-width:2;stroke-linecap:round;stroke-linejoin:round;stroke-miterlimit:4;stroke-dasharray:none;stroke-opacity:1"
     id="path4366"
     sodipodi:type="arc"
     sodipodi:cx="177.73811"
     sodipodi:cy="-15.624413"
     sodipodi:rx="13.519156"
     sodipodi:ry="12.391982"
     sodipodi:start="1.5044738"
     sodipodi:end="3.97586"
     d="m 178.63408,-3.2596746 a 13.519156,12.391982 0 0 1 -13.34042,-7.5228044 13.519156,12.391982 0 0 1 3.36336,-14.021971"
     sodipodi:open="true" /><path
     id="path4368"
     style="opacity:1;fill:#ffffff;fill-opacity:1;stroke:#000000;stroke-width:2;stroke-linecap:round;stroke-linejoin:round;stroke-miterlimit:4;stroke-dasharray:none;stroke-opacity:1"
     transform="scale(-1,1)"
     sodipodi:type="arc"
     sodipodi:cx="-194.5434"
     sodipodi:cy="-24.63217"
     sodipodi:rx="18.025543"
     sodipodi:ry="19.827171"
     sodipodi:start="3.5849063"
     sodipodi:end="5.5937803"
     d="m -210.82651,-33.13674 a 18.025543,19.827171 0 0 1 14.07074,-11.172696 18.025543,19.827171 0 0 1 16.12133,7.065635"
     sodipodi:open="true" /><path
     id="path4370"
     style="opacity:1;fill:#ffffff;fill-opacity:1;stroke:#000000;stroke-width:2;stroke-linecap:round;stroke-linejoin:round;stroke-miterlimit:4;stroke-dasharray:none;stroke-opacity:1"
     transform="scale(-1,-1)"
     sodipodi:type="arc"
     sodipodi:cx="-210.76375"
     sodipodi:cy="18.127068"
     sodipodi:rx="13.519156"
     sodipodi:ry="14.870378"
     sodipodi:start="1.1833332"
     sodipodi:end="4.7158796"
     d="m -205.65566,31.895113 a 13.519156,14.870378 0 0 1 -14.71196,-3.302153 13.519156,14.870378 0 0 1 -2.86503,-16.212441 13.519156,14.870378 0 0 1 12.51609,-9.1237384"
     sodipodi:open="true" /><path
     id="path4372"
     style="opacity:1;fill:#ffffff;fill-opacity:1;stroke:#000000;stroke-width:2;stroke-linecap:round;stroke-linejoin:round;stroke-miterlimit:4;stroke-dasharray:none;stroke-opacity:1"
     sodipodi:type="arc"
     sodipodi:cx="177.74722"
     sodipodi:cy="-27.935921"
     sodipodi:rx="9.5206804"
     sodipodi:ry="9.9031143"
     sodipodi:start="2.8239427"
     sodipodi:end="6.0475659"
     d="m 168.70284,-24.842832 a 9.5206804,9.9031143 0 0 1 2.12309,-9.893208 9.5206804,9.9031143 0 0 1 9.37472,-2.76853 9.5206804,9.9031143 0 0 1 6.8042,7.256814"
     sodipodi:open="true" /><path
     style="fill:none;fill-rule:evenodd;stroke:#000000;stroke-width:2.05596852;stroke-linecap:butt;stroke-linejoin:miter;stroke-miterlimit:4;stroke-dasharray:none;stroke-opacity:1"
     d="m 178.09858,-3.2274166 33.05148,0"
     id="path4374"
     inkscape:connector-curvature="0" /><path
     style="opacity:1;fill:#ffffff;fill-opacity:1;stroke:#000000;stroke-width:2;stroke-linecap:round;stroke-linejoin:round;stroke-miterlimit:4;stroke-dasharray:none;stroke-opacity:1"
     id="path4376"
     sodipodi:type="arc"
     sodipodi:cx="179.53113"
     sodipodi:cy="34.579845"
     sodipodi:rx="13.519156"
     sodipodi:ry="12.391982"
     sodipodi:start="1.5044738"
     sodipodi:end="3.97586"
     d="m 180.4271,46.944583 a 13.519156,12.391982 0 0 1 -13.34042,-7.522804 13.519156,12.391982 0 0 1 3.36335,-14.021971"
     sodipodi:open="true" /><path
     id="path4378"
     style="opacity:1;fill:#ffffff;fill-opacity:1;stroke:#000000;stroke-width:2;stroke-linecap:round;stroke-linejoin:round;stroke-miterlimit:4;stroke-dasharray:none;stroke-opacity:1"
     transform="scale(-1,1)"
     sodipodi:type="arc"
     sodipodi:cx="-196.33641"
     sodipodi:cy="25.572088"
     sodipodi:rx="18.025543"
     sodipodi:ry="19.827171"
     sodipodi:start="3.5849063"
     sodipodi:end="5.5937803"
     d="m -212.61952,17.067518 a 18.025543,19.827171 0 0 1 14.07074,-11.1726963 18.025543,19.827171 0 0 1 16.12132,7.0656353"
     sodipodi:open="true" /><path
     id="path4380"
     style="opacity:1;fill:#ffffff;fill-opacity:1;stroke:#000000;stroke-width:2;stroke-linecap:round;stroke-linejoin:round;stroke-miterlimit:4;stroke-dasharray:none;stroke-opacity:1"
     transform="scale(-1,-1)"
     sodipodi:type="arc"
     sodipodi:cx="-212.55676"
     sodipodi:cy="-32.07719"
     sodipodi:rx="13.519156"
     sodipodi:ry="14.870378"
     sodipodi:start="1.1833332"
     sodipodi:end="4.7158796"
     d="m -207.44867,-18.309145 a 13.519156,14.870378 0 0 1 -14.71197,-3.302153 13.519156,14.870378 0 0 1 -2.86502,-16.212441 13.519156,14.870378 0 0 1 12.51609,-9.123738"
     sodipodi:open="true" /><path
     id="path4382"
     style="opacity:1;fill:#ffffff;fill-opacity:1;stroke:#000000;stroke-width:2;stroke-linecap:round;stroke-linejoin:round;stroke-miterlimit:4;stroke-dasharray:none;stroke-opacity:1"
     sodipodi:type="arc"
     sodipodi:cx="179.54024"
     sodipodi:cy="22.268337"
     sodipodi:rx="9.5206804"
     sodipodi:ry="9.9031143"
     sodipodi:start="2.8239427"
     sodipodi:end="6.0475659"
     d="m 170.49586,25.361426 a 9.5206804,9.9031143 0 0 1 2.12309,-9.893208 9.5206804,9.9031143 0 0 1 9.37472,-2.76853 9.5206804,9.9031143 0 0 1 6.80419,7.256814"
     sodipodi:open="true" /><path
     style="fill:none;fill-rule:evenodd;stroke:#000000;stroke-width:2.05596852;stroke-linecap:butt;stroke-linejoin:miter;stroke-miterlimit:4;stroke-dasharray:none;stroke-opacity:1"
     d="m 179.89159,46.976842 33.05148,0"
     id="path4384"
     inkscape:connector-curvature="0" /><path
     sodipodi:open="true"
     d="m 180.4271,46.944583 a 13.519156,12.391982 0 0 1 -13.34042,-7.522804 13.519156,12.391982 0 0 1 3.36335,-14.021971"
     sodipodi:end="3.97586"
     sodipodi:start="1.5044738"
     sodipodi:ry="12.391982"
     sodipodi:rx="13.519156"
     sodipodi:cy="34.579845"
     sodipodi:cx="179.53113"
     sodipodi:type="arc"
     id="path4386"
     style="opacity:1;fill:#ffffff;fill-opacity:1;stroke:#000000;stroke-width:2;stroke-linecap:round;stroke-linejoin:round;stroke-miterlimit:4;stroke-dasharray:none;stroke-opacity:1" /><path
     sodipodi:open="true"
     d="m -212.61952,17.067518 a 18.025543,19.827171 0 0 1 14.07074,-11.1726963 18.025543,19.827171 0 0 1 16.12132,7.0656353"
     sodipodi:end="5.5937803"
     sodipodi:start="3.5849063"
     sodipodi:ry="19.827171"
     sodipodi:rx="18.025543"
     sodipodi:cy="25.572088"
     sodipodi:cx="-196.33641"
     sodipodi:type="arc"
     transform="scale(-1,1)"
     style="opacity:1;fill:#ffffff;fill-opacity:1;stroke:#000000;stroke-width:2;stroke-linecap:round;stroke-linejoin:round;stroke-miterlimit:4;stroke-dasharray:none;stroke-opacity:1"
     id="path4388" /><path
     sodipodi:open="true"
     d="m -207.44867,-18.309145 a 13.519156,14.870378 0 0 1 -14.71197,-3.302153 13.519156,14.870378 0 0 1 -2.86502,-16.212441 13.519156,14.870378 0 0 1 12.51609,-9.123738"
     sodipodi:end="4.7158796"
     sodipodi:start="1.1833332"
     sodipodi:ry="14.870378"
     sodipodi:rx="13.519156"
     sodipodi:cy="-32.07719"
     sodipodi:cx="-212.55676"
     sodipodi:type="arc"
     transform="scale(-1,-1)"
     style="opacity:1;fill:#ffffff;fill-opacity:1;stroke:#000000;stroke-width:2;stroke-linecap:round;stroke-linejoin:round;stroke-miterlimit:4;stroke-dasharray:none;stroke-opacity:1"
     id="path4390" /><path
     sodipodi:open="true"
     d="m 170.49586,25.361426 a 9.5206804,9.9031143 0 0 1 2.12309,-9.893208 9.5206804,9.9031143 0 0 1 9.37472,-2.76853 9.5206804,9.9031143 0 0 1 6.80419,7.256814"
     sodipodi:end="6.0475659"
     sodipodi:start="2.8239427"
     sodipodi:ry="9.9031143"
     sodipodi:rx="9.5206804"
     sodipodi:cy="22.268337"
     sodipodi:cx="179.54024"
     sodipodi:type="arc"
     style="opacity:1;fill:#ffffff;fill-opacity:1;stroke:#000000;stroke-width:2;stroke-linecap:round;stroke-linejoin:round;stroke-miterlimit:4;stroke-dasharray:none;stroke-opacity:1"
     id="path4392" /><path
     inkscape:connector-curvature="0"
     id="path4394"
     d="m 179.89159,46.976842 33.05148,0"
     style="fill:none;fill-rule:evenodd;stroke:#000000;stroke-width:2.05596852;stroke-linecap:butt;stroke-linejoin:miter;stroke-miterlimit:4;stroke-dasharray:none;stroke-opacity:1" /><ellipse
     style="opacity:1;fill:#201a23;fill-opacity:1;stroke:none;stroke-width:2;stroke-linecap:round;stroke-linejoin:round;stroke-miterlimit:4;stroke-dasharray:none;stroke-opacity:1"
     id="ellipse4396"
     cx="100.21934"
     cy="-12.396996"
     rx="13.519156"
     ry="12.391982" /><ellipse
     cy="21.404753"
     cx="117.02462"
     id="ellipse4398"
     style="opacity:1;fill:#201a23;fill-opacity:1;stroke:none;stroke-width:2;stroke-linecap:round;stroke-linejoin:round;stroke-miterlimit:4;stroke-dasharray:none;stroke-opacity:1"
     transform="scale(1,-1)"
     rx="18.025543"
     ry="19.827171" /><ellipse
     cy="-14.899651"
     cx="133.24498"
     id="ellipse4400"
     style="opacity:1;fill:#201a23;fill-opacity:1;stroke:none;stroke-width:2;stroke-linecap:round;stroke-linejoin:round;stroke-miterlimit:4;stroke-dasharray:none;stroke-opacity:1"
     rx="13.519156"
     ry="14.870378" /><ellipse
     ry="9.9031143"
     rx="9.5206804"
     cy="-24.708504"
     cx="100.22845"
     id="ellipse4402"
     style="opacity:1;fill:#201a23;fill-opacity:1;stroke:none;stroke-width:2;stroke-linecap:round;stroke-linejoin:round;stroke-miterlimit:4;stroke-dasharray:none;stroke-opacity:1" /><rect
     style="opacity:1;fill:#201a23;fill-opacity:1;stroke:none;stroke-width:2;stroke-linecap:round;stroke-linejoin:round;stroke-miterlimit:4;stroke-dasharray:none;stroke-opacity:1"
     id="rect4404"
     width="33.40979"
     height="9.0709457"
     x="100.20612"
     y="-9.1096821"
     ry="0.61382639" /><ellipse
     ry="12.391982"
     rx="13.519156"
     cy="-12.396996"
     cx="100.21934"
     id="ellipse4406"
     style="opacity:1;fill:#201a23;fill-opacity:1;stroke:none;stroke-width:2;stroke-linecap:round;stroke-linejoin:round;stroke-miterlimit:4;stroke-dasharray:none;stroke-opacity:1" /><ellipse
     ry="19.827171"
     rx="18.025543"
     transform="scale(1,-1)"
     style="opacity:1;fill:#201a23;fill-opacity:1;stroke:none;stroke-width:2;stroke-linecap:round;stroke-linejoin:round;stroke-miterlimit:4;stroke-dasharray:none;stroke-opacity:1"
     id="ellipse4408"
     cx="117.02462"
     cy="21.404753" /><ellipse
     ry="14.870378"
     rx="13.519156"
     style="opacity:1;fill:#201a23;fill-opacity:1;stroke:none;stroke-width:2;stroke-linecap:round;stroke-linejoin:round;stroke-miterlimit:4;stroke-dasharray:none;stroke-opacity:1"
     id="ellipse4410"
     cx="133.24498"
     cy="-14.899651" /><ellipse
     style="opacity:1;fill:#201a23;fill-opacity:1;stroke:none;stroke-width:2;stroke-linecap:round;stroke-linejoin:round;stroke-miterlimit:4;stroke-dasharray:none;stroke-opacity:1"
     id="ellipse4412"
     cx="100.22845"
     cy="-24.708504"
     rx="9.5206804"
     ry="9.9031143" /><rect
     ry="0.61382639"
     y="-9.1096821"
     x="100.20612"
     height="9.0709457"
     width="33.40979"
     id="rect4414"
     style="opacity:1;fill:#201a23;fill-opacity:1;stroke:none;stroke-width:2;stroke-linecap:round;stroke-linejoin:round;stroke-miterlimit:4;stroke-dasharray:none;stroke-opacity:1" /><g
     id="g4454"
     transform="matrix(0.81491964,0,0,0.79124208,4.4967538,20.009854)"><ellipse
       style="opacity:1;fill:#201a23;fill-opacity:1;stroke:none;stroke-width:2;stroke-linecap:round;stroke-linejoin:round;stroke-miterlimit:4;stroke-dasharray:none;stroke-opacity:1"
       id="ellipse4434"
       cx="177.31874"
       cy="102.3556"
       rx="13.519156"
       ry="12.391982" /><ellipse
       cy="-93.347839"
       cx="194.12402"
       id="ellipse4436"
       style="opacity:1;fill:#201a23;fill-opacity:1;stroke:none;stroke-width:2;stroke-linecap:round;stroke-linejoin:round;stroke-miterlimit:4;stroke-dasharray:none;stroke-opacity:1"
       transform="scale(1,-1)"
       rx="18.025543"
       ry="19.827171" /><ellipse
       cy="99.852943"
       cx="210.34438"
       id="ellipse4438"
       style="opacity:1;fill:#201a23;fill-opacity:1;stroke:none;stroke-width:2;stroke-linecap:round;stroke-linejoin:round;stroke-miterlimit:4;stroke-dasharray:none;stroke-opacity:1"
       rx="13.519156"
       ry="14.870378" /><ellipse
       ry="9.9031143"
       rx="9.5206804"
       cy="90.04409"
       cx="177.32785"
       id="ellipse4440"
       style="opacity:1;fill:#201a23;fill-opacity:1;stroke:none;stroke-width:2;stroke-linecap:round;stroke-linejoin:round;stroke-miterlimit:4;stroke-dasharray:none;stroke-opacity:1" /><rect
       style="opacity:1;fill:#201a23;fill-opacity:1;stroke:none;stroke-width:2;stroke-linecap:round;stroke-linejoin:round;stroke-miterlimit:4;stroke-dasharray:none;stroke-opacity:1"
       id="rect4442"
       width="33.40979"
       height="9.0709457"
       x="177.30553"
       y="105.64291"
       ry="0.61382639" /><ellipse
       ry="12.391982"
       rx="13.519156"
       cy="102.3556"
       cx="177.31874"
       id="ellipse4444"
       style="opacity:1;fill:#201a23;fill-opacity:1;stroke:none;stroke-width:2;stroke-linecap:round;stroke-linejoin:round;stroke-miterlimit:4;stroke-dasharray:none;stroke-opacity:1" /><ellipse
       ry="19.827171"
       rx="18.025543"
       transform="scale(1,-1)"
       style="opacity:1;fill:#201a23;fill-opacity:1;stroke:none;stroke-width:2;stroke-linecap:round;stroke-linejoin:round;stroke-miterlimit:4;stroke-dasharray:none;stroke-opacity:1"
       id="ellipse4446"
       cx="194.12402"
       cy="-93.347839" /><ellipse
       ry="14.870378"
       rx="13.519156"
       style="opacity:1;fill:#201a23;fill-opacity:1;stroke:none;stroke-width:2;stroke-linecap:round;stroke-linejoin:round;stroke-miterlimit:4;stroke-dasharray:none;stroke-opacity:1"
       id="ellipse4448"
       cx="210.34438"
       cy="99.852943" /><ellipse
       style="opacity:1;fill:#201a23;fill-opacity:1;stroke:none;stroke-width:2;stroke-linecap:round;stroke-linejoin:round;stroke-miterlimit:4;stroke-dasharray:none;stroke-opacity:1"
       id="ellipse4450"
       cx="177.32785"
       cy="90.04409"
       rx="9.5206804"
       ry="9.9031143" /><rect
       ry="0.61382639"
       y="105.64291"
       x="177.30553"
       height="9.0709457"
       width="33.40979"
       id="rect4452"
       style="opacity:1;fill:#201a23;fill-opacity:1;stroke:none;stroke-width:2;stroke-linecap:round;stroke-linejoin:round;stroke-miterlimit:4;stroke-dasharray:none;stroke-opacity:1" /></g><path
     style="opacity:1;fill:#ffffff;fill-opacity:1;stroke:#000000;stroke-width:2;stroke-linecap:round;stroke-linejoin:round;stroke-miterlimit:4;stroke-dasharray:none;stroke-opacity:1"
     id="path4466"
     sodipodi:type="arc"
     sodipodi:cx="118.92741"
     sodipodi:cy="114.54806"
     sodipodi:rx="13.519156"
     sodipodi:ry="12.391982"
     sodipodi:start="1.5044738"
     sodipodi:end="3.97586"
     d="m 119.82337,126.9128 a 13.519156,12.391982 0 0 1 -13.34041,-7.52281 13.519156,12.391982 0 0 1 3.36335,-14.02197"
     sodipodi:open="true" /><path
     id="path4468"
     style="opacity:1;fill:#ffffff;fill-opacity:1;stroke:#000000;stroke-width:2;stroke-linecap:round;stroke-linejoin:round;stroke-miterlimit:4;stroke-dasharray:none;stroke-opacity:1"
     transform="scale(-1,1)"
     sodipodi:type="arc"
     sodipodi:cx="-135.7327"
     sodipodi:cy="105.5403"
     sodipodi:rx="18.025543"
     sodipodi:ry="19.827171"
     sodipodi:start="3.5849063"
     sodipodi:end="5.5937803"
     d="m -152.01581,97.035728 a 18.025543,19.827171 0 0 1 14.07074,-11.172696 18.025543,19.827171 0 0 1 16.12133,7.065635"
     sodipodi:open="true" /><path
     id="path4470"
     style="opacity:1;fill:#ffffff;fill-opacity:1;stroke:#000000;stroke-width:2;stroke-linecap:round;stroke-linejoin:round;stroke-miterlimit:4;stroke-dasharray:none;stroke-opacity:1"
     transform="scale(-1,-1)"
     sodipodi:type="arc"
     sodipodi:cx="-151.95305"
     sodipodi:cy="-112.0454"
     sodipodi:rx="13.519156"
     sodipodi:ry="14.870378"
     sodipodi:start="1.1833332"
     sodipodi:end="4.7158796"
     d="m -146.84496,-98.277358 a 13.519156,14.870378 0 0 1 -14.71196,-3.302152 13.519156,14.870378 0 0 1 -2.86503,-16.21244 13.519156,14.870378 0 0 1 12.51609,-9.12374"
     sodipodi:open="true" /><path
     id="path4472"
     style="opacity:1;fill:#ffffff;fill-opacity:1;stroke:#000000;stroke-width:2;stroke-linecap:round;stroke-linejoin:round;stroke-miterlimit:4;stroke-dasharray:none;stroke-opacity:1"
     sodipodi:type="arc"
     sodipodi:cx="118.93652"
     sodipodi:cy="102.23655"
     sodipodi:rx="9.5206804"
     sodipodi:ry="9.9031143"
     sodipodi:start="2.8239427"
     sodipodi:end="6.0475659"
     d="m 109.89214,105.32964 a 9.5206804,9.9031143 0 0 1 2.12309,-9.89321 9.5206804,9.9031143 0 0 1 9.37473,-2.76853 9.5206804,9.9031143 0 0 1 6.80419,7.256814"
     sodipodi:open="true" /><path
     style="fill:#ffffff;fill-opacity:1;fill-rule:evenodd;stroke:#000000;stroke-width:2.05596852;stroke-linecap:butt;stroke-linejoin:miter;stroke-miterlimit:4;stroke-dasharray:none;stroke-opacity:1"
     d="m 119.28788,126.94505 33.05148,0"
     id="path4474"
     inkscape:connector-curvature="0" /><path
     sodipodi:open="true"
     d="m 119.82337,126.9128 a 13.519156,12.391982 0 0 1 -13.34041,-7.52281 13.519156,12.391982 0 0 1 3.36335,-14.02197"
     sodipodi:end="3.97586"
     sodipodi:start="1.5044738"
     sodipodi:ry="12.391982"
     sodipodi:rx="13.519156"
     sodipodi:cy="114.54806"
     sodipodi:cx="118.92741"
     sodipodi:type="arc"
     id="path4476"
     style="opacity:1;fill:#ffffff;fill-opacity:1;stroke:#000000;stroke-width:2;stroke-linecap:round;stroke-linejoin:round;stroke-miterlimit:4;stroke-dasharray:none;stroke-opacity:1" /><path
     sodipodi:open="true"
     d="m -152.01581,97.035728 a 18.025543,19.827171 0 0 1 14.07074,-11.172696 18.025543,19.827171 0 0 1 16.12133,7.065635"
     sodipodi:end="5.5937803"
     sodipodi:start="3.5849063"
     sodipodi:ry="19.827171"
     sodipodi:rx="18.025543"
     sodipodi:cy="105.5403"
     sodipodi:cx="-135.7327"
     sodipodi:type="arc"
     transform="scale(-1,1)"
     style="opacity:1;fill:#ffffff;fill-opacity:1;stroke:#000000;stroke-width:2;stroke-linecap:round;stroke-linejoin:round;stroke-miterlimit:4;stroke-dasharray:none;stroke-opacity:1"
     id="path4478" /><path
     transform="scale(-1,-1)"
     style="opacity:1;fill:#ffffff;fill-opacity:1;stroke:#000000;stroke-width:2;stroke-linecap:round;stroke-linejoin:round;stroke-miterlimit:4;stroke-dasharray:none;stroke-opacity:1"
     id="path4480"
     d="m -144.21812,-99.849434 a 13.519156,14.870378 0 0 1 -15.84581,-0.299166 13.519156,14.870378 0 0 1 -4.69964,-16.64805 13.519156,14.870378 0 0 1 12.9049,-10.11877"
     sodipodi:type="arc"
     sodipodi:start="0.96167642"
     sodipodi:end="4.7193703"
     sodipodi:ry="14.870378"
     sodipodi:rx="13.519156"
     sodipodi:cy="-112.0454"
     sodipodi:cx="-151.95305"
     sodipodi:open="true" /><path
     sodipodi:open="true"
     d="m 109.89214,105.32964 a 9.5206804,9.9031143 0 0 1 2.12309,-9.89321 9.5206804,9.9031143 0 0 1 9.37473,-2.76853 9.5206804,9.9031143 0 0 1 6.80419,7.256814"
     sodipodi:end="6.0475659"
     sodipodi:start="2.8239427"
     sodipodi:ry="9.9031143"
     sodipodi:rx="9.5206804"
     sodipodi:cy="102.23655"
     sodipodi:cx="118.93652"
     sodipodi:type="arc"
     style="opacity:1;fill:#ffffff;fill-opacity:1;stroke:#000000;stroke-width:2;stroke-linecap:round;stroke-linejoin:round;stroke-miterlimit:4;stroke-dasharray:none;stroke-opacity:1"
     id="path4482" /><path
     inkscape:connector-curvature="0"
     id="path4484"
     d="m 119.28788,126.94505 33.05148,0"
     style="fill:#ffffff;fill-opacity:1;fill-rule:evenodd;stroke:#000000;stroke-width:2.05596852;stroke-linecap:butt;stroke-linejoin:miter;stroke-miterlimit:4;stroke-dasharray:none;stroke-opacity:1" /><path
     style="fill:#ffffff;fill-opacity:1;fill-rule:evenodd;stroke:none;stroke-width:1px;stroke-linecap:butt;stroke-linejoin:miter;stroke-opacity:1"
     d="m 137.14009,94.67833 12.82634,1.648538 c 0,0 -3.05214,0.676164 -4.72011,1.644076 -1.66797,0.967911 -2.2887,1.388858 -1.91676,2.448696 0.65843,0.76051 1.64983,0.18278 1.64983,0.18278 l 0.0206,0.72946 5.27176,9.65572 -13.05725,0.0315 z"
     id="path4508"
     inkscape:connector-curvature="0"
     sodipodi:nodetypes="cczcccccc" /><g
     id="g4589"
     transform="matrix(0.76907072,0,0,0.71034786,-81.896777,1.5400269)"><g
       transform="translate(-2.3044802,0.3142473)"
       id="g4577"><ellipse
         style="opacity:1;fill:#201a23;fill-opacity:1;stroke:none;stroke-width:2;stroke-linecap:round;stroke-linejoin:round;stroke-miterlimit:4;stroke-dasharray:none;stroke-opacity:1"
         id="ellipse4512"
         cx="156.44046"
         cy="171.04216"
         rx="6.7800608"
         ry="8.0249014" /><ellipse
         cy="-165.20885"
         cx="165.56738"
         id="ellipse4514"
         style="opacity:1;fill:#201a23;fill-opacity:1;stroke:none;stroke-width:2;stroke-linecap:round;stroke-linejoin:round;stroke-miterlimit:4;stroke-dasharray:none;stroke-opacity:1"
         transform="scale(1,-1)"
         rx="12.873415"
         ry="12.839843" /><ellipse
         cy="169.42148"
         cx="177.15158"
         id="ellipse4516"
         style="opacity:1;fill:#201a23;fill-opacity:1;stroke:none;stroke-width:2;stroke-linecap:round;stroke-linejoin:round;stroke-miterlimit:4;stroke-dasharray:none;stroke-opacity:1"
         rx="9.6550608"
         ry="9.6298819" /><ellipse
         ry="6.4131403"
         rx="6.7994442"
         cy="163.06938"
         cx="153.57196"
         id="ellipse4518"
         style="opacity:1;fill:#201a23;fill-opacity:1;stroke:none;stroke-width:2;stroke-linecap:round;stroke-linejoin:round;stroke-miterlimit:4;stroke-dasharray:none;stroke-opacity:1" /><rect
         style="opacity:1;fill:#201a23;fill-opacity:1;stroke:none;stroke-width:2;stroke-linecap:round;stroke-linejoin:round;stroke-miterlimit:4;stroke-dasharray:none;stroke-opacity:1"
         id="rect4520"
         width="23.860479"
         height="5.8742375"
         x="153.55602"
         y="173.17099"
         ry="0.39750674" /><ellipse
         ry="8.0249014"
         rx="7.5337405"
         cy="171.04216"
         cx="155.68678"
         id="ellipse4522"
         style="opacity:1;fill:#201a23;fill-opacity:1;stroke:none;stroke-width:2;stroke-linecap:round;stroke-linejoin:round;stroke-miterlimit:4;stroke-dasharray:none;stroke-opacity:1" /><ellipse
         ry="12.839843"
         rx="12.873415"
         transform="scale(1,-1)"
         style="opacity:1;fill:#201a23;fill-opacity:1;stroke:none;stroke-width:2;stroke-linecap:round;stroke-linejoin:round;stroke-miterlimit:4;stroke-dasharray:none;stroke-opacity:1"
         id="ellipse4524"
         cx="165.56738"
         cy="-165.20885" /><ellipse
         ry="9.6298819"
         rx="9.6550608"
         style="opacity:1;fill:#201a23;fill-opacity:1;stroke:none;stroke-width:2;stroke-linecap:round;stroke-linejoin:round;stroke-miterlimit:4;stroke-dasharray:none;stroke-opacity:1"
         id="ellipse4526"
         cx="177.15158"
         cy="169.42148" /><ellipse
         style="opacity:1;fill:#201a23;fill-opacity:1;stroke:none;stroke-width:2;stroke-linecap:round;stroke-linejoin:round;stroke-miterlimit:4;stroke-dasharray:none;stroke-opacity:1"
         id="ellipse4528"
         cx="153.57196"
         cy="163.06938"
         rx="6.7994442"
         ry="6.4131403" /><rect
         ry="0.39750674"
         y="173.17099"
         x="153.55602"
         height="5.8742375"
         width="23.860479"
         id="rect4530"
         style="opacity:1;fill:#201a23;fill-opacity:1;stroke:none;stroke-width:2;stroke-linecap:round;stroke-linejoin:round;stroke-miterlimit:4;stroke-dasharray:none;stroke-opacity:1" /></g><g
       transform="matrix(1.0146424,0,0,0.82417029,-1.6615199,28.078439)"
       id="g4554"><path
         sodipodi:open="true"
         d="m 121.99742,201.37379 a 13.519156,12.391982 0 0 1 -13.34042,-7.52281 13.519156,12.391982 0 0 1 3.36335,-14.02197"
         sodipodi:end="3.97586"
         sodipodi:start="1.5044738"
         sodipodi:ry="12.391982"
         sodipodi:rx="13.519156"
         sodipodi:cy="189.00905"
         sodipodi:cx="121.10145"
         sodipodi:type="arc"
         id="path4532"
         style="opacity:1;fill:#ffffff;fill-opacity:1;stroke:#000000;stroke-width:2;stroke-linecap:round;stroke-linejoin:round;stroke-miterlimit:4;stroke-dasharray:none;stroke-opacity:1" /><path
         sodipodi:open="true"
         d="m -154.18985,171.49673 a 18.025543,19.827171 0 0 1 14.07074,-11.1727 18.025543,19.827171 0 0 1 16.12132,7.06564"
         sodipodi:end="5.5937803"
         sodipodi:start="3.5849063"
         sodipodi:ry="19.827171"
         sodipodi:rx="18.025543"
         sodipodi:cy="180.0013"
         sodipodi:cx="-137.90674"
         sodipodi:type="arc"
         transform="scale(-1,1)"
         style="opacity:1;fill:#ffffff;fill-opacity:1;stroke:#000000;stroke-width:2;stroke-linecap:round;stroke-linejoin:round;stroke-miterlimit:4;stroke-dasharray:none;stroke-opacity:1"
         id="path4534" /><path
         sodipodi:open="true"
         d="m -149.019,-172.73835 a 13.519156,14.870378 0 0 1 -14.71197,-3.30215 13.519156,14.870378 0 0 1 -2.86502,-16.21244 13.519156,14.870378 0 0 1 12.51609,-9.12374"
         sodipodi:end="4.7158796"
         sodipodi:start="1.1833332"
         sodipodi:ry="14.870378"
         sodipodi:rx="13.519156"
         sodipodi:cy="-186.50639"
         sodipodi:cx="-154.12709"
         sodipodi:type="arc"
         transform="scale(-1,-1)"
         style="opacity:1;fill:#ffffff;fill-opacity:1;stroke:#000000;stroke-width:2;stroke-linecap:round;stroke-linejoin:round;stroke-miterlimit:4;stroke-dasharray:none;stroke-opacity:1"
         id="path4536" /><path
         sodipodi:open="true"
         d="m 112.06619,179.79063 a 9.5206804,9.9031143 0 0 1 2.12309,-9.89321 9.5206804,9.9031143 0 0 1 9.37472,-2.76853 9.5206804,9.9031143 0 0 1 6.8042,7.25681"
         sodipodi:end="6.0475659"
         sodipodi:start="2.8239427"
         sodipodi:ry="9.9031143"
         sodipodi:rx="9.5206804"
         sodipodi:cy="176.69754"
         sodipodi:cx="121.11057"
         sodipodi:type="arc"
         style="opacity:1;fill:#ffffff;fill-opacity:1;stroke:#000000;stroke-width:2;stroke-linecap:round;stroke-linejoin:round;stroke-miterlimit:4;stroke-dasharray:none;stroke-opacity:1"
         id="path4538" /><path
         inkscape:connector-curvature="0"
         id="path4540"
         d="m 121.46192,201.40604 33.05148,0"
         style="fill:#ffffff;fill-opacity:1;fill-rule:evenodd;stroke:#000000;stroke-width:2.05596852;stroke-linecap:butt;stroke-linejoin:miter;stroke-miterlimit:4;stroke-dasharray:none;stroke-opacity:1" /><path
         style="opacity:1;fill:#ffffff;fill-opacity:1;stroke:#000000;stroke-width:2;stroke-linecap:round;stroke-linejoin:round;stroke-miterlimit:4;stroke-dasharray:none;stroke-opacity:1"
         id="path4542"
         sodipodi:type="arc"
         sodipodi:cx="121.10145"
         sodipodi:cy="189.00905"
         sodipodi:rx="13.519156"
         sodipodi:ry="12.391982"
         sodipodi:start="1.5044738"
         sodipodi:end="3.97586"
         d="m 121.99742,201.37379 a 13.519156,12.391982 0 0 1 -13.34042,-7.52281 13.519156,12.391982 0 0 1 3.36335,-14.02197"
         sodipodi:open="true" /><path
         id="path4544"
         style="opacity:1;fill:#ffffff;fill-opacity:1;stroke:#000000;stroke-width:2;stroke-linecap:round;stroke-linejoin:round;stroke-miterlimit:4;stroke-dasharray:none;stroke-opacity:1"
         transform="scale(-1,1)"
         sodipodi:type="arc"
         sodipodi:cx="-137.90674"
         sodipodi:cy="180.0013"
         sodipodi:rx="18.025543"
         sodipodi:ry="19.827171"
         sodipodi:start="3.5849063"
         sodipodi:end="5.5937803"
         d="m -154.18985,171.49673 a 18.025543,19.827171 0 0 1 14.07074,-11.1727 18.025543,19.827171 0 0 1 16.12132,7.06564"
         sodipodi:open="true" /><path
         sodipodi:open="true"
         sodipodi:cx="-154.12709"
         sodipodi:cy="-186.50639"
         sodipodi:rx="13.519156"
         sodipodi:ry="14.870378"
         sodipodi:end="4.7193703"
         sodipodi:start="0.96167642"
         sodipodi:type="arc"
         d="m -146.39216,-174.31043 a 13.519156,14.870378 0 0 1 -15.84581,-0.29916 13.519156,14.870378 0 0 1 -4.69964,-16.64805 13.519156,14.870378 0 0 1 12.9049,-10.11877"
         id="path4546"
         style="opacity:1;fill:#ffffff;fill-opacity:1;stroke:#000000;stroke-width:2;stroke-linecap:round;stroke-linejoin:round;stroke-miterlimit:4;stroke-dasharray:none;stroke-opacity:1"
         transform="scale(-1,-1)" /><path
         id="path4548"
         style="opacity:1;fill:#ffffff;fill-opacity:1;stroke:#000000;stroke-width:2;stroke-linecap:round;stroke-linejoin:round;stroke-miterlimit:4;stroke-dasharray:none;stroke-opacity:1"
         sodipodi:type="arc"
         sodipodi:cx="121.11057"
         sodipodi:cy="176.69754"
         sodipodi:rx="9.5206804"
         sodipodi:ry="9.9031143"
         sodipodi:start="2.8239427"
         sodipodi:end="6.0475659"
         d="m 112.06619,179.79063 a 9.5206804,9.9031143 0 0 1 2.12309,-9.89321 9.5206804,9.9031143 0 0 1 9.37472,-2.76853 9.5206804,9.9031143 0 0 1 6.8042,7.25681"
         sodipodi:open="true" /><path
         style="fill:#ffffff;fill-opacity:1;fill-rule:evenodd;stroke:#000000;stroke-width:2.05596852;stroke-linecap:butt;stroke-linejoin:miter;stroke-miterlimit:4;stroke-dasharray:none;stroke-opacity:1"
         d="m 121.46192,201.40604 33.05148,0"
         id="path4550"
         inkscape:connector-curvature="0" /><path
         sodipodi:nodetypes="cczcccccc"
         inkscape:connector-curvature="0"
         id="path4552"
         d="m 139.56413,169.13932 12.58215,1.64854 c 0,0 -2.99403,0.67617 -4.63025,1.64408 -1.63621,0.96791 -2.24512,1.38886 -1.88026,2.44869 0.64589,0.76051 1.61842,0.18278 1.61842,0.18278 l 0.0202,0.72946 5.1714,9.65572 -12.80867,0.0315 z"
         style="fill:#ffffff;fill-opacity:1;fill-rule:evenodd;stroke:none;stroke-width:1px;stroke-linecap:butt;stroke-linejoin:miter;stroke-opacity:1" /></g></g></svg>