<?xml version="1.0" encoding="UTF-8" standalone="no"?>
<!-- Generator: Adobe Illustrator 19.0.0, SVG Export Plug-In . SVG Version: 6.00 Build 0)  -->

<svg
   xmlns:dc="http://purl.org/dc/elements/1.1/"
   xmlns:cc="http://creativecommons.org/ns#"
   xmlns:rdf="http://www.w3.org/1999/02/22-rdf-syntax-ns#"
   xmlns:svg="http://www.w3.org/2000/svg"
   xmlns="http://www.w3.org/2000/svg"
   xmlns:sodipodi="http://sodipodi.sourceforge.net/DTD/sodipodi-0.dtd"
   xmlns:inkscape="http://www.inkscape.org/namespaces/inkscape"
   version="1.1"
   id="Layer_1"
   x="0px"
   y="0px"
   viewBox="0 0 512 512"
   style="enable-background:new 0 0 512 512;"
   xml:space="preserve"
   inkscape:version="0.91 r13725"
   sodipodi:docname="sunset.svg"><metadata
     id="metadata4498"><rdf:RDF><cc:Work
         rdf:about=""><dc:format>image/svg+xml</dc:format><dc:type
           rdf:resource="http://purl.org/dc/dcmitype/StillImage" /><dc:title></dc:title></cc:Work></rdf:RDF></metadata><defs
     id="defs4496" /><sodipodi:namedview
     pagecolor="#ffffff"
     bordercolor="#666666"
     borderopacity="1"
     objecttolerance="10"
     gridtolerance="10"
     guidetolerance="10"
     inkscape:pageopacity="0"
     inkscape:pageshadow="2"
     inkscape:window-width="1391"
     inkscape:window-height="876"
     id="namedview4494"
     showgrid="false"
     inkscape:zoom="0.4609375"
     inkscape:cx="-2.1694915"
     inkscape:cy="256"
     inkscape:window-x="49"
     inkscape:window-y="24"
     inkscape:window-maximized="1"
     inkscape:current-layer="Layer_1" /><g
     id="g4422"><g
       id="g4424"><path
         d="M501.344,325.328H380.188c2.625-10.219,4.031-20.938,4.031-32c0-70.805-57.406-128.211-128.219-128.211    s-128.219,57.406-128.219,128.211c0,11.062,1.406,21.781,4.039,32H10.664C4.773,325.328,0,330.109,0,336    s4.773,10.672,10.664,10.672h490.68c5.875,0,10.656-4.781,10.656-10.672S507.219,325.328,501.344,325.328z M358.03,325.328    H153.977c-3.196-10.219-4.868-20.969-4.868-32c0-28.531,11.125-55.383,31.312-75.57c20.187-20.187,47.031-31.312,75.578-31.312    s55.391,11.125,75.578,31.312s31.312,47.039,31.312,75.57C362.889,304.359,361.217,315.109,358.03,325.328z"
         id="path4426" /></g></g><g
     id="g4428"><g
       id="g4430"><path
         d="M96,282.672H32c-5.891,0-10.664,4.781-10.664,10.656c0,5.906,4.773,10.688,10.664,10.688h64    c5.891,0,10.664-4.781,10.664-10.688C106.664,287.453,101.891,282.672,96,282.672z"
         id="path4432" /></g></g><g
     id="g4434"><g
       id="g4436"><path
         d="M480,282.672h-0.031H416c-5.891,0-10.656,4.781-10.656,10.656c0,5.906,4.766,10.672,10.656,10.688l0.016-0.016    L480,304.016V304c5.891,0.016,10.656-4.766,10.656-10.672C490.656,287.453,485.89,282.672,480,282.672z"
         id="path4438" /></g></g><g
     id="g4440"><g
       id="g4442"><path
         d="M421.938,127.406c-4.172-4.172-10.922-4.172-15.094,0l-0.016,0.016l-45.234,45.234c-4.156,4.164-4.156,10.922,0,15.086    s10.922,4.164,15.094,0c0,0,0,0,0-0.008l45.25-45.25C426.094,138.32,426.094,131.57,421.938,127.406z"
         id="path4444" /></g></g><g
     id="g4446"><g
       id="g4448"><path
         d="M256,58.672c-5.891,0-10.672,4.773-10.664,10.664c0,0.008,0,0.016,0,0.031v63.969c0,5.891,4.773,10.664,10.664,10.664    c5.891,0.008,10.664-4.773,10.664-10.664v-64C266.664,63.445,261.891,58.672,256,58.672z"
         id="path4450" /></g></g><g
     id="g4452"><g
       id="g4454"><path
         d="M150.406,172.656c-0.008,0-0.008-0.008-0.008-0.008l-45.25-45.242c-4.164-4.172-10.914-4.172-15.086,0    c-4.164,4.164-4.164,10.922,0,15.086c0.008,0,0.016,0.008,0.024,0.016l45.234,45.234c4.164,4.164,10.922,4.164,15.086,0    S154.57,176.828,150.406,172.656z"
         id="path4456" /></g></g><g
     id="g4458"
     transform="matrix(-1,0,0,-1,512.006,821.328)"><g
       id="g4460"><path
         d="m 286.172,393.75 -0.016,-0.016 -22.609,-22.609 -0.008,0 C 261.609,369.203 258.945,368 256,368 c -2.945,0 -5.609,1.203 -7.539,3.125 l -22.633,22.625 c -4.164,4.172 -4.164,10.922 0,15.078 4.164,4.172 10.922,4.172 15.086,0 l 0.008,0 4.414,-4.406 0,38.25 c 0,5.891 4.773,10.656 10.664,10.656 5.891,0 10.664,-4.766 10.664,-10.656 0,0 0,-0.016 0,-0.031 l 0,-38.219 4.422,4.406 c 4.164,4.188 10.914,4.188 15.086,0 4.172,-4.156 4.172,-10.906 0,-15.078 z"
         id="path4462"
         inkscape:connector-curvature="0" /></g></g><g
     id="g4464" /><g
     id="g4466" /><g
     id="g4468" /><g
     id="g4470" /><g
     id="g4472" /><g
     id="g4474" /><g
     id="g4476" /><g
     id="g4478" /><g
     id="g4480" /><g
     id="g4482" /><g
     id="g4484" /><g
     id="g4486" /><g
     id="g4488" /><g
     id="g4490" /><g
     id="g4492" /></svg>