<svg height="511pt" viewBox="-45 1 511 511.99925" width="511pt" xmlns="http://www.w3.org/2000/svg"><path d="m353.738281 158.484375c18.527344-21.546875 37.257813-39.988281 47.535157-49.753906 10.992187-8.570313 19.226562-19.800781 19.226562-33.730469 0-16.390625-11.746094-39.546875-67.703125-56.761719-38.222656-11.761719-88.757813-18.238281-142.296875-18.238281-50.851562 0-99.507812 5.917969-137.007812 16.667969-42.605469 12.207031-66.828126 29.09375-71.996094 50.167969-.660156 2.683593-.996094 5.429687-.996094 8.164062 0 65.453125 14.753906 126.867188 59.289062 175.253906 1.269532 2.367188 3.171876 4.375 5.527344 5.78125 26.871094 27.121094 58.136719 44.617188 84.023438 59.101563 38.265625 21.410156 61.160156 35.203125 61.160156 60.863281 0 53.039062-55.148438 109.921875-55.695312 110.480469-5.148438 5.238281-5.75 13.433593-1.417969 19.367187 4.355469 5.960938 12.355469 7.835938 18.878906 4.539063 1.871094-.949219 46.351563-23.519531 91.601563-53.941407 35.042968-23.554687 96.632812-68.257812 96.632812-110.445312 0-28.707031-18.332031-41.367188-33.058594-51.542969-14.625-10.097656-26.214844-18.121093-26.542968-41.613281.015624-.429688.011718-.867188-.007813-1.304688.222656-28.277343 34.464844-71.675781 52.847656-93.054687zm-323.109375-84.492187c1.355469-5.527344 13.648438-17.746094 51.125-28.488282 34.890625-9.996094 80.613282-15.503906 128.746094-15.503906 50.632812 0 98.03125 6.007812 133.472656 16.910156 34.136719 10.503906 46.527344 22.550782 46.527344 28.089844 0 1.582031-1.082031 3.367188-2.167969 4.769531-7.789062 7.082031-6.050781 5.96875-9.507812 8.230469-16.0625-7.351562-36.671875-13.605469-60.425781-18.285156-8.125-1.605469-16.015626 3.6875-17.617188 11.816406s3.691406 16.015625 11.816406 17.617188c8.847656 1.742187 17.136719 3.703124 24.808594 5.839843-31.546875 8.796875-75.28125 15.011719-126.90625 15.011719-47.640625 0-92.421875-5.320312-127.070312-15.03125 30.3125-8.492188 69.738281-13.800781 112.417968-14.800781 8.285156-.191407 14.839844-7.0625 14.648438-15.34375-.191406-8.164063-6.867188-14.648438-14.988282-14.648438-.121093 0-.238281 0-.359374.003907-61.628907 1.441406-117.824219 11.742187-152.953126 27.816406-4.296874-2.785156-12.769531-9.140625-11.566406-14.003906zm299.871094 272.007812c0 1.601562-.277344 3.804688-1.203125 6.648438-14.582031 2.179687-29.703125 3.957031-45.085937 5.28125-8.253907.710937-14.367188 7.976562-13.65625 16.230468.710937 8.269532 7.996093 14.371094 16.230468 13.660156 6.121094-.527343 12.199219-1.128906 18.230469-1.792968-14.074219 13.832031-33.449219 29.082031-57.667969 45.375-9.710937 6.535156-19.460937 12.734375-28.757812 18.421875 12.023437-21.78125 21.910156-47.648438 21.910156-73.824219 0-18.554688-6.554688-32.976562-17.050781-45.101562 11.113281-.15625 22.113281-.511719 32.835937-1.078126 8.273438-.433593 14.628906-7.492187 14.191406-15.765624-.433593-8.269532-7.488281-14.632813-15.765624-14.191407-23.445313 1.230469-47.117188 1.421875-70.300782.765625-6.613281-3.941406-13.480468-7.789062-20.421875-11.671875-12.179687-6.8125-24.964843-13.96875-37.605469-22.234375 18.515626 2.003906 37.316407 3.105469 39.128907 3.105469 7.914062 0 14.53125-6.199219 14.964843-14.195313.445313-8.269531-5.898437-15.339843-14.171874-15.785156-30.4375-1.640625-58.835938-5.066406-84.523438-10.191406-9.863281-10.804688-18.867188-23.230469-26.484375-37.824219 18.023437 5.21875 44.636719 10.707031 49.097656 10.707031 7.179688 0 13.527344-5.175781 14.769531-12.492187 1.390626-8.167969-4.109374-15.914063-12.273437-17.300781-25.226563-4.285156-47.414063-10.132813-66.09375-17.402344-3.351563-11.558594-5.984375-24.148438-7.742187-37.9375.242187.132812.484374.269531.734374.402344.460938.28125.941407.535156 1.429688.765625 8.765625 4.617187 19.609375 9.074219 32.984375 13.1875 38.21875 11.761719 88.753906 18.238281 142.296875 18.238281 44.480469 0 86.589844-4.417969 121.949219-12.761719-.414063.480469-.832031.957031-1.246094 1.441407-10.734375 12.472656-20.039063 24.328124-27.925781 35.566406-30.488282 4.582031-59.042969 6.113281-78.140625 6.574218-8.28125.199219-14.832031 7.074219-14.632813 15.355469.195313 8.160157 6.871094 14.640625 14.988282 14.640625.121093 0 .246093-.003906.367187-.003906 14.800781-.359375 35.046875-1.332031 57.574219-3.769531-5.617188 11.328125-9.359375 21.8125-11.199219 31.417969-15.128906 1.273437-30.746094 2.082031-46.59375 2.394531-8.28125.160156-14.867187 7.007812-14.703125 15.289062.164062 8.257813 6.984375 14.863281 15.292969 14.703125 15.664062-.308594 31.128906-1.078125 46.15625-2.289062 5.34375 28.019531 23.882812 40.832031 38.003906 50.585937 13.945313 9.628907 20.109375 14.410157 20.109375 26.855469zm0 0"/><path d="m146.105469 447.605469c5.859375-5.855469 5.859375-15.355469 0-21.210938l-30-30c-5.855469-5.859375-15.355469-5.859375-21.210938 0-5.859375 5.855469-5.859375 15.355469 0 21.210938l30 30c5.855469 5.859375 15.355469 5.859375 21.210938 0zm0 0"/><path d="m45.5 512h60c8.285156 0 15-6.71875 15-15 0-8.285156-6.714844-15-15-15h-60c-8.285156 0-15 6.714844-15 15 0 8.28125 6.714844 15 15 15zm0 0"/><path d="m60.5 437c0 8.285156-6.714844 15-15 15s-15-6.714844-15-15 6.714844-15 15-15 15 6.714844 15 15zm0 0"/><path d="m300.5 497c0 8.285156-6.714844 15-15 15s-15-6.714844-15-15 6.714844-15 15-15 15 6.714844 15 15zm0 0"/></svg>