<?xml version="1.0" encoding="UTF-8" standalone="no"?>
<!-- Generator: Adobe Illustrator 19.0.0, SVG Export Plug-In . SVG Version: 6.00 Build 0)  -->

<svg
   xmlns:dc="http://purl.org/dc/elements/1.1/"
   xmlns:cc="http://creativecommons.org/ns#"
   xmlns:rdf="http://www.w3.org/1999/02/22-rdf-syntax-ns#"
   xmlns:svg="http://www.w3.org/2000/svg"
   xmlns="http://www.w3.org/2000/svg"
   xmlns:sodipodi="http://sodipodi.sourceforge.net/DTD/sodipodi-0.dtd"
   xmlns:inkscape="http://www.inkscape.org/namespaces/inkscape"
   version="1.1"
   id="Capa_1"
   x="0px"
   y="0px"
   viewBox="0 0 368 368"
   style="enable-background:new 0 0 368 368;"
   xml:space="preserve"
   inkscape:version="0.91 r13725"
   sodipodi:docname="wind-dark.svg"><metadata
     id="metadata7223"><rdf:RDF><cc:Work
         rdf:about=""><dc:format>image/svg+xml</dc:format><dc:type
           rdf:resource="http://purl.org/dc/dcmitype/StillImage" /><dc:title></dc:title></cc:Work></rdf:RDF></metadata><defs
     id="defs7221" /><sodipodi:namedview
     pagecolor="#ffffff"
     bordercolor="#666666"
     borderopacity="1"
     objecttolerance="10"
     gridtolerance="10"
     guidetolerance="10"
     inkscape:pageopacity="0"
     inkscape:pageshadow="2"
     inkscape:window-width="1391"
     inkscape:window-height="876"
     id="namedview7219"
     showgrid="false"
     inkscape:zoom="0.64130435"
     inkscape:cx="-1.559322"
     inkscape:cy="184"
     inkscape:window-x="49"
     inkscape:window-y="24"
     inkscape:window-maximized="1"
     inkscape:current-layer="Capa_1" /><g
     id="g7171"
     style="fill:#201a23;fill-opacity:1"><g
       id="g7173"
       style="fill:#201a23;fill-opacity:1"><path
         d="M296,48c-39.704,0-72,32.304-72,72c0,4.416,3.576,8,8,8s8-3.584,8-8c0-30.88,25.128-56,56-56s56,25.12,56,56    s-25.128,56-56,56H8c-4.416,0-8,3.584-8,8s3.584,8,8,8h288c39.704,0,72-32.304,72-72S335.704,48,296,48z"
         id="path7175"
         style="fill:#201a23;fill-opacity:1" /></g></g><g
     id="g7177"
     style="fill:#201a23;fill-opacity:1"><g
       id="g7179"
       style="fill:#201a23;fill-opacity:1"><path
         d="M144,32c-30.88,0-56,25.12-56,56c0,4.416,3.584,8,8,8s8-3.584,8-8c0-22.056,17.944-40,40-40c22.056,0,40,17.944,40,40    c0,22.056-17.944,40-40,40H8c-4.416,0-8,3.584-8,8s3.584,8,8,8h136c30.88,0,56-25.12,56-56S174.88,32,144,32z"
         id="path7181"
         style="fill:#201a23;fill-opacity:1" /></g></g><g
     id="g7183"
     style="fill:#201a23;fill-opacity:1"><g
       id="g7185"
       style="fill:#201a23;fill-opacity:1"><path
         d="M280,224H8c-4.416,0-8,3.584-8,8c0,4.416,3.584,8,8,8h272c22.056,0,40,17.944,40,40c0,22.056-17.944,40-40,40    c-22.056,0-40-17.944-40-40c0-4.416-3.576-8-8-8s-8,3.584-8,8c0,30.88,25.128,56,56,56s56-25.12,56-56S310.872,224,280,224z"
         id="path7187"
         style="fill:#201a23;fill-opacity:1" /></g></g><g
     id="g7189" /><g
     id="g7191" /><g
     id="g7193" /><g
     id="g7195" /><g
     id="g7197" /><g
     id="g7199" /><g
     id="g7201" /><g
     id="g7203" /><g
     id="g7205" /><g
     id="g7207" /><g
     id="g7209" /><g
     id="g7211" /><g
     id="g7213" /><g
     id="g7215" /><g
     id="g7217" /></svg>