<svg xmlns="http://www.w3.org/2000/svg" viewBox="0 0 61.000001 31.000001">
  <g stroke="#7c7c7c">
    <path d="M12.243589 1051.3432a10.549433 7.2544284 0 0 1-10.4099565-4.4039 10.549433 7.2544284 0 0 1 2.6245325-8.2087M4.898544 1038.4046a7.4292927 5.7974129 0 0 1 2.7539708-6.5364 7.4292927 5.7974129 0 0 1 8.8160222.1201" fill="none" stroke-width="2" stroke-linecap="round" stroke-linejoin="round" transform="matrix(1.23077 0 0 1.09273 -.0725809 -1119.019901)"/>
    <path d="M11.42112 1051.3622h25.79113" fill="#fff" fill-rule="evenodd" stroke-width="2" transform="matrix(1.23077 0 0 1.09273 -.0725809 -1119.019901)"/>
    <path d="M-36.944609 1033.1378a15.173814 13.17987 0 0 1 12.107777-7.4531 15.173814 13.17987 0 0 1 13.63746 5.083" transform="matrix(-1.23077 0 0 1.09273 -.0725809 -1119.019901)" fill="none" stroke-width="2.2135401" stroke-linecap="round" stroke-linejoin="round"/>
    <path transform="matrix(-1.23077 0 0 -1.09273 -.0725809 -1119.019901)" d="M-33.863439-1034.4136a10.549433 8.7053146 0 0 1-11.217371-2.3336 10.549433 8.7053146 0 0 1-1.879454-9.4193 10.549433 8.7053146 0 0 1 9.718509-5.1783" fill="none" stroke-width="2" stroke-linecap="round" stroke-linejoin="round"/>
  </g>
</svg>
