<svg xmlns="http://www.w3.org/2000/svg" xmlns:xlink="http://www.w3.org/1999/xlink" viewBox="0 0 63.000001 32">
  <defs>
    <linearGradient id="a">
      <stop offset="0" stop-color="#d35400"/>
      <stop offset="1" stop-color="#d35400" stop-opacity="0"/>
    </linearGradient>
    <linearGradient xlink:href="#a" id="b" x1="-46.111374" y1="1037.3667" x2="-53.059628" y2="1023.5009" gradientUnits="userSpaceOnUse" gradientTransform="matrix(1.00745 0 0 1.00967 .4547823 -11.037032)"/>
  </defs>
  <path transform="matrix(-1 0 0 1 0 -1020.3622)" d="M-48.402627 1046.2306a10.491486 10.140086 0 0 1-8.041586-9.9779 10.491486 10.140086 0 0 1 8.27963-9.7943 10.491486 10.140086 0 0 1 11.71966 5.6269l-9.508515 4.2854z" fill="url(#b)"/>
  <path d="M38.262362 11.3301a13.172982 15.269283 90 0 0-.962205-1.6059" fill="none" stroke="#fff" stroke-width="1.003" stroke-linecap="round" stroke-linejoin="round"/>
  <path d="M46.538677 1.089v3M61.295327 15.928h-3M57.075255 5.2556l-2.180776 2.1805M37.782607 7.1814l-2.1805-2.1807M57.147948 26.574l-2.1805-2.1807M46.510231 27.8795v3" fill="none" stroke="#d35400" stroke-width="2" stroke-linecap="round"/>
  <path d="M38.379401 11.5039s9.584202.7873 10.764103 8.6271c.814345 5.4108-3.87407 9.1956-3.87407 9.1956" fill="none" stroke="#fff" stroke-width="1.0246894" stroke-linecap="round"/>
  <g stroke="#7c7c7c">
    <path d="M12.243591 30.3441a10.549433 7.2544284 0 0 1-10.4099566-4.404 10.549433 7.2544284 0 0 1 2.6245325-8.2086M4.8985459 17.4054a7.4292927 5.7974129 0 0 1 2.7539708-6.5363 7.4292927 5.7974129 0 0 1 8.8160223.1201" fill="none" stroke-width="2" stroke-linecap="round" stroke-linejoin="round"/>
    <path d="M11.421122 30.363h25.79113" fill="#fff" fill-rule="evenodd" stroke-width="2"/>
    <path d="M36.944611 12.1387a13.17987 15.173814 90 0 0-12.107777-7.4532 13.17987 15.173814 90 0 0-13.63746 5.0831" fill="none" stroke-width="2.2135401" stroke-linecap="round" stroke-linejoin="round"/>
    <path d="M33.863443 13.4144a8.7053146 10.549433 90 0 1 11.21737 2.3337 8.7053146 10.549433 90 0 1 1.879454 9.4193 8.7053146 10.549433 90 0 1-9.718509 5.1782" fill="none" stroke-width="2" stroke-linecap="round" stroke-linejoin="round"/>
  </g>
</svg>
