<svg xmlns="http://www.w3.org/2000/svg" viewBox="0 0 61.000001 45.000001">
  <g>
    <path d="M47.06675 18.13436a8.5333529 9.3101931 90 0 0 6.174482-9.7693 8.5333529 9.3101931 90 0 0-9.805108-6.8339 8.5333529 9.3101931 90 0 0-8.620975 8.0642" fill="#44494a" stroke="#44494a" stroke-width="1.395159" stroke-linecap="round" stroke-linejoin="round"/>
    <path d="M33.000886 7.14066a4.5583892 3.7535555 0 0 1 5.106368-2.1982 4.5583892 3.7535555 0 0 1 3.641798 3.6769M50.632308 7.20766a5.6362867 6.4728127 90 0 1 7.973192 2.9232 5.6362867 6.4728127 90 0 1-2.485989 7.2154 5.6362867 6.4728127 90 0 1-8.50441-1.3814" fill="#44494a" stroke="#44494a" stroke-width="1.260568" stroke-linecap="round" stroke-linejoin="round"/>
    <path d="M12.243589 30.23406a10.549433 7.2544284 0 0 1-10.4099565-4.4039 10.549433 7.2544284 0 0 1 2.6245325-8.2087M4.898544 17.29546a7.4292927 5.7974129 0 0 1 2.7539708-6.5364 7.4292927 5.7974129 0 0 1 8.8160222.1201" fill="none" stroke="#7c7c7c" stroke-width="2" stroke-linecap="round" stroke-linejoin="round"/>
    <path d="M11.42112 30.25306h25.79113" fill="#fff" fill-rule="evenodd" stroke="#7c7c7c" stroke-width="2"/>
    <path d="M36.944609 12.02866a13.17987 15.173814 90 0 0-12.107777-7.4531 13.17987 15.173814 90 0 0-13.63746 5.083" fill="none" stroke="#7c7c7c" stroke-width="2.2135401" stroke-linecap="round" stroke-linejoin="round"/>
    <path d="M33.863439 13.30446a8.7053146 10.549433 90 0 1 11.217371 2.3336 8.7053146 10.549433 90 0 1 1.879454 9.4193 8.7053146 10.549433 90 0 1-9.718509 5.1783" fill="none" stroke="#7c7c7c" stroke-width="2" stroke-linecap="round" stroke-linejoin="round"/>
    <path d="M38.262361 11.22016a13.172982 15.269283 90 0 0-5.255354-5.5591" fill="none" stroke="#fff" stroke-width="1.0028788" stroke-linecap="round" stroke-linejoin="round"/>
    <path d="M38.559642 11.27426a12.873577 15.341052 0 0 1 10.665424 7.5465" fill="none" stroke="#fff" stroke-width="1.4664607" stroke-linecap="round" stroke-linejoin="round"/>
  </g>
  <path d="M19.871982 26.3895s-4.272131 2.3479-4.631726 4.4643c-.227392 1.3383.521891 3.2326 1.822426 3.6912 1.300533.4586 3.051237-.5542 3.695273-1.7456 1.018369-1.8841-.885973-6.4099-.885973-6.4099zM25.66116 31.3517s-4.272131 2.3479-4.631726 4.4643c-.227392 1.3383.521891 3.2326 1.822426 3.6912 1.300533.4586 3.051237-.5542 3.695273-1.7456 1.018369-1.8841-.885973-6.4099-.885973-6.4099zM12.263348 31.0209s-4.2721313 2.3479-4.6317263 4.4643c-.227392 1.3383.5218914 3.2326 1.8224264 3.6912 1.3005329.4586 3.0512369-.5542 3.6952729-1.7456 1.018369-1.8841-.885973-6.4099-.885973-6.4099zM18.052526 36.4793s-4.272131 2.3479-4.631726 4.4643c-.227392 1.3383.521891 3.2326 1.822426 3.6912 1.300533.4586 3.051237-.5542 3.695273-1.7456 1.018369-1.8841-.885973-6.4099-.885973-6.4099zM33.372476 27.4233s-4.272131 2.3479-4.631726 4.4643c-.227392 1.3383.521891 3.2326 1.822426 3.6912 1.300533.4586 3.051237-.5542 3.695273-1.7456 1.018369-1.8841-.885973-6.4099-.885973-6.4099zM31.044531 36.1531s-4.272131 2.3479-4.631726 4.4643c-.227392 1.3383.521891 3.2326 1.822426 3.6912 1.300533.4586 3.051237-.5542 3.695273-1.7456 1.018369-1.8841-.885973-6.4099-.885973-6.4099zM39.48333 32.0792s-4.272131 2.3479-4.631726 4.4643c-.227392 1.3383.521891 3.2326 1.822426 3.6912 1.300533.4586 3.051237-.5542 3.695273-1.7456 1.018369-1.8841-.885973-6.4099-.885973-6.4099z" fill="#1978d4" fill-rule="evenodd"/>
</svg>
