<svg xmlns="http://www.w3.org/2000/svg" xmlns:xlink="http://www.w3.org/1999/xlink" viewBox="0 0 61.000001 45.000001">
  <defs>
    <linearGradient id="a">
      <stop offset="0" stop-color="#708090" stop-opacity=".3937824"/>
      <stop offset="1" stop-color="#708090"/>
    </linearGradient>
    <linearGradient xlink:href="#a" id="b" x1="-49.719398" y1="1039.9491" x2="-39.537804" y2="1028.9425" gradientUnits="userSpaceOnUse" gradientTransform="matrix(1.44816 0 0 1.55947 17.823385 -572.82033)"/>
  </defs>
  <path d="M-47.81839 1048.426a13.482619 13.307535 0 0 1-11.708185-12.5746 13.482619 13.307535 0 0 1 10.473317-13.5942 13.482619 13.307535 0 0 1 15.405519 7.7754l-12.410817 5.1997z" transform="matrix(-1 0 0 1 0 -1020.85811)" fill="url(#b)"/>
  <path d="M12.243589 30.48509a10.549433 7.2544284 0 0 1-10.4099565-4.4039 10.549433 7.2544284 0 0 1 2.6245325-8.2087M4.898544 17.54649a7.4292927 5.7974129 0 0 1 2.7539708-6.5364 7.4292927 5.7974129 0 0 1 8.8160222.1201" fill="none" stroke="#7c7c7c" stroke-width="2" stroke-linecap="round" stroke-linejoin="round"/>
  <path d="M11.42112 30.50409h25.79113" fill="#fff" fill-rule="evenodd" stroke="#7c7c7c" stroke-width="2"/>
  <path d="M36.944609 12.27969a13.17987 15.173814 90 0 0-12.107777-7.4531 13.17987 15.173814 90 0 0-13.63746 5.083" fill="none" stroke="#7c7c7c" stroke-width="2.2135401" stroke-linecap="round" stroke-linejoin="round"/>
  <path d="M33.863439 13.55549a8.7053146 10.549433 90 0 1 11.217371 2.3336 8.7053146 10.549433 90 0 1 1.879454 9.4193 8.7053146 10.549433 90 0 1-9.718509 5.1783" fill="none" stroke="#7c7c7c" stroke-width="2" stroke-linecap="round" stroke-linejoin="round"/>
  <path d="M38.262361 11.47119a13.172982 15.269283 90 0 0-5.255354-5.5591" fill="none" stroke="#fff" stroke-width="1.003" stroke-linecap="round" stroke-linejoin="round"/>
  <path d="M38.379399 11.64499s8.948544.7188 10.783608 8.0853c1.147793 4.6075-2.032692 8.0204-2.032692 8.0204" fill="none" stroke="#fff" stroke-width="1.0246894" stroke-linecap="round"/>
  <g fill="#1978d4" fill-rule="evenodd">
    <path d="M19.1156825 26.3545695s-4.272131 2.3479-4.631726 4.4643c-.227392 1.3383.521891 3.2326 1.822426 3.6912 1.300533.4586 3.051237-.5542 3.695273-1.7456 1.018369-1.8841-.885973-6.4099-.885973-6.4099zM24.9048605 31.3167695s-4.272131 2.3479-4.631726 4.4643c-.227392 1.3383.521891 3.2326 1.822426 3.6912 1.300533.4586 3.051237-.5542 3.695273-1.7456 1.018369-1.8841-.885973-6.4099-.885973-6.4099zM11.5070485 30.9859695s-4.2721314 2.3479-4.6317264 4.4643c-.227392 1.3383.5218914 3.2326 1.8224264 3.6912 1.300533.4586 3.051237-.5542 3.695273-1.7456 1.018369-1.8841-.885973-6.4099-.885973-6.4099zM17.2962265 36.4443695s-4.272131 2.3479-4.631726 4.4643c-.227392 1.3383.521891 3.2326 1.822426 3.6912 1.300533.4586 3.051237-.5542 3.695273-1.7456 1.018369-1.8841-.885973-6.4099-.885973-6.4099zM32.6161765 27.3883695s-4.272131 2.3479-4.631726 4.4643c-.227392 1.3383.521891 3.2326 1.822426 3.6912 1.300533.4586 3.051237-.5542 3.695273-1.7456 1.018369-1.8841-.885973-6.4099-.885973-6.4099zM30.2882315 36.1181695s-4.272131 2.3479-4.631726 4.4643c-.227392 1.3383.521891 3.2326 1.822426 3.6912 1.300533.4586 3.051237-.5542 3.695273-1.7456 1.018369-1.8841-.885973-6.4099-.885973-6.4099zM38.7270305 32.0442695s-4.272131 2.3479-4.631726 4.4643c-.227392 1.3383.521891 3.2326 1.822426 3.6912 1.300533.4586 3.051237-.5542 3.695273-1.7456 1.018369-1.8841-.885973-6.4099-.885973-6.4099z"/>
  </g>
</svg>
