<svg xmlns="http://www.w3.org/2000/svg" xmlns:xlink="http://www.w3.org/1999/xlink" viewBox="0 0 63.000001 45">
  <defs>
    <linearGradient id="a">
      <stop offset="0" stop-color="#d35400"/>
      <stop offset="1" stop-color="#d35400" stop-opacity="0"/>
    </linearGradient>
    <linearGradient xlink:href="#a" id="b" x1="-46.111374" y1="1037.3667" x2="-53.059628" y2="1023.5009" gradientUnits="userSpaceOnUse" gradientTransform="matrix(1.00745 0 0 1.00967 .4547823 -11.037032)"/>
  </defs>
  <path d="M-48.402627 1046.2306a10.491486 10.140086 0 0 1-8.041586-9.9779 10.491486 10.140086 0 0 1 8.27963-9.7943 10.491486 10.140086 0 0 1 11.71966 5.6269l-9.508515 4.2854z" transform="matrix(-1 0 0 1 0 -1020.027848)" fill="url(#b)"/>
  <path d="M38.262362 11.664452a13.172982 15.269283 90 0 0-.962205-1.6059" fill="none" stroke="#fff" stroke-width="1.003" stroke-linecap="round" stroke-linejoin="round"/>
  <path d="M46.538677 1.423352v3M61.295327 16.262352h-3M57.075255 5.589952l-2.180776 2.1805M37.782607 7.515752l-2.1805-2.1807M57.147948 26.908352l-2.1805-2.1807M46.510231 28.213852v3" fill="none" stroke="#d35400" stroke-width="2" stroke-linecap="round"/>
  <path d="M38.379401 11.838252s9.584202.7873 10.764103 8.6271c.814345 5.4108-3.87407 9.1956-3.87407 9.1956" fill="none" stroke="#fff" stroke-width="1.0246894" stroke-linecap="round"/>
  <g stroke="#7c7c7c">
    <path d="M12.243591 30.678452a10.549433 7.2544284 0 0 1-10.4099566-4.404 10.549433 7.2544284 0 0 1 2.6245325-8.2086M4.8985459 17.739752a7.4292927 5.7974129 0 0 1 2.7539708-6.5363 7.4292927 5.7974129 0 0 1 8.8160223.1201" fill="none" stroke-width="2" stroke-linecap="round" stroke-linejoin="round"/>
    <path d="M11.421122 30.697352h25.79113" fill="#fff" fill-rule="evenodd" stroke-width="2"/>
    <path d="M36.944611 12.473052a13.17987 15.173814 90 0 0-12.107777-7.4532 13.17987 15.173814 90 0 0-13.63746 5.0831" fill="none" stroke-width="2.2135401" stroke-linecap="round" stroke-linejoin="round"/>
    <path d="M33.863443 13.748752a8.7053146 10.549433 90 0 1 11.21737 2.3337 8.7053146 10.549433 90 0 1 1.879454 9.4193 8.7053146 10.549433 90 0 1-9.718509 5.1782" fill="none" stroke-width="2" stroke-linecap="round" stroke-linejoin="round"/>
  </g>
  <g fill="#1978d4" fill-rule="evenodd">
    <path d="M19.626965 26.3802965s-4.272131 2.3479-4.631726 4.4643c-.227392 1.3383.521891 3.2326 1.822426 3.6912 1.300533.4586 3.051237-.5542 3.695273-1.7456 1.018369-1.8841-.885973-6.4099-.885973-6.4099zM25.416143 31.3424965s-4.272131 2.3479-4.631726 4.4643c-.227392 1.3383.521891 3.2326 1.822426 3.6912 1.300533.4586 3.051237-.5542 3.695273-1.7456 1.018369-1.8841-.885973-6.4099-.885973-6.4099zM12.018331 31.0116965s-4.2721314 2.3479-4.6317264 4.4643c-.227392 1.3383.5218914 3.2326 1.8224264 3.6912 1.300533.4586 3.051237-.5542 3.695273-1.7456 1.018369-1.8841-.885973-6.4099-.885973-6.4099zM17.807509 36.4700965s-4.272131 2.3479-4.631726 4.4643c-.227392 1.3383.521891 3.2326 1.822426 3.6912 1.300533.4586 3.051237-.5542 3.695273-1.7456 1.018369-1.8841-.885973-6.4099-.885973-6.4099zM33.127459 27.4140965s-4.272131 2.3479-4.631726 4.4643c-.227392 1.3383.521891 3.2326 1.822426 3.6912 1.300533.4586 3.051237-.5542 3.695273-1.7456 1.018369-1.8841-.885973-6.4099-.885973-6.4099zM30.799514 36.1438965s-4.272131 2.3479-4.631726 4.4643c-.227392 1.3383.521891 3.2326 1.822426 3.6912 1.300533.4586 3.051237-.5542 3.695273-1.7456 1.018369-1.8841-.885973-6.4099-.885973-6.4099zM39.238313 32.0699965s-4.272131 2.3479-4.631726 4.4643c-.227392 1.3383.521891 3.2326 1.822426 3.6912 1.300533.4586 3.051237-.5542 3.695273-1.7456 1.018369-1.8841-.885973-6.4099-.885973-6.4099z"/>
  </g>
</svg>
