<svg xmlns="http://www.w3.org/2000/svg" xmlns:xlink="http://www.w3.org/1999/xlink" viewBox="0 0 63.000001 45">
  <defs>
    <linearGradient id="a">
      <stop offset="0" stop-color="#d35400"/>
      <stop offset="1" stop-color="#d35400" stop-opacity="0"/>
    </linearGradient>
    <linearGradient xlink:href="#a" id="b" x1="-46.111374" y1="1037.3667" x2="-53.059628" y2="1023.5009" gradientUnits="userSpaceOnUse" gradientTransform="matrix(1.00745 0 0 1.00967 .4547823 -11.037032)"/>
  </defs>
  <path d="M-48.402627 1046.2306a10.491486 10.140086 0 0 1-8.041586-9.9779 10.491486 10.140086 0 0 1 8.27963-9.7943 10.491486 10.140086 0 0 1 11.71966 5.6269l-9.508515 4.2854z" transform="matrix(-1 0 0 1 0 -1019.009372)" fill="url(#b)"/>
  <path d="M38.262362 12.682928a13.172982 15.269283 90 0 0-.962205-1.6059" fill="none" stroke="#fff" stroke-width="1.003" stroke-linecap="round" stroke-linejoin="round"/>
  <path d="M46.538677 2.441828v3M61.295327 17.280828h-3M57.075255 6.608428l-2.180776 2.1805M37.782607 8.534228l-2.1805-2.1807M57.147948 27.926828l-2.1805-2.1807M46.510231 29.232328v3" fill="none" stroke="#d35400" stroke-width="2" stroke-linecap="round"/>
  <path d="M38.379401 12.856728s9.584202.7873 10.764103 8.6271c.814345 5.4108-3.87407 9.1956-3.87407 9.1956" fill="none" stroke="#fff" stroke-width="1.0246894" stroke-linecap="round"/>
  <g stroke="#7c7c7c">
    <path d="M12.243591 31.696928a10.549433 7.2544284 0 0 1-10.4099566-4.404 10.549433 7.2544284 0 0 1 2.6245325-8.2086M4.8985459 18.758228a7.4292927 5.7974129 0 0 1 2.7539708-6.5363 7.4292927 5.7974129 0 0 1 8.8160223.1201" fill="none" stroke-width="2" stroke-linecap="round" stroke-linejoin="round"/>
    <path d="M11.421122 31.715828h25.79113" fill="#fff" fill-rule="evenodd" stroke-width="2"/>
    <path d="M36.944611 13.491528a13.17987 15.173814 90 0 0-12.107777-7.4532 13.17987 15.173814 90 0 0-13.63746 5.0831" fill="none" stroke-width="2.2135401" stroke-linecap="round" stroke-linejoin="round"/>
    <path d="M33.863443 14.767228a8.7053146 10.549433 90 0 1 11.21737 2.3337 8.7053146 10.549433 90 0 1 1.879454 9.4193 8.7053146 10.549433 90 0 1-9.718509 5.1782" fill="none" stroke-width="2" stroke-linecap="round" stroke-linejoin="round"/>
  </g>
  <path d="M24.847653 25.4433s-3.639803 4.0037-3.251586 6.3337c.245529 1.4735 1.718773 3.1668 3.251586 3.1668 1.532812 0 3.006057-1.6933 3.251586-3.1668.388217-2.33-3.251586-6.3337-3.251586-6.3337zM32.646172 33.6934s-3.639803 4.0037-3.251586 6.3337c.245529 1.4736 1.718774 3.1669 3.251586 3.1669s3.006057-1.6933 3.251586-3.1669c.388216-2.33-3.251586-6.3337-3.251586-6.3337zM17.721419 34.3482s-3.639801 4.0036-3.251586 6.3337c.245529 1.4735 1.718774 3.1668 3.251586 3.1668 1.532814 0 3.006057-1.6933 3.251586-3.1668.388217-2.3301-3.251586-6.3337-3.251586-6.3337z" fill="#1978d4" fill-rule="evenodd"/>
</svg>
