<svg xmlns="http://www.w3.org/2000/svg" viewBox="0 0 48.000001 23.000001">
  <g fill="none" stroke="#708090" stroke-width="2" stroke-linecap="round">
    <path d="M5.3912775 14.4104724c12.7299213-11.6219 18.2607483-.3466 26.8520193-.721 3.753531.066 10.222329-3.4211 10.222329-3.4211"/>
    <path d="M5.5491959 10.3719724c12.7299209-11.6219 18.2607479-.3465 26.8520189-.721 3.753531.066 10.222329-3.421 10.222329-3.421"/>
    <path d="M5.3990296 6.4585724c12.7299212-11.6219 18.2607482-.3466 26.8520182-.721 3.753532.066 10.22233-3.4211 10.22233-3.4211M5.5491959 21.9508c12.7299208-11.6219 18.2607478-.3465 26.8520188-.721 3.753531.066 10.222329-3.421 10.222329-3.421"/>
    <path d="M5.3990296 18.0374c12.7299211-11.6219 18.2607481-.3466 26.8520181-.721 3.753532.066 10.22233-3.4211 10.22233-3.4211"/>
  </g>
</svg>
