<svg xmlns="http://www.w3.org/2000/svg" viewBox="0 0 61.000001 31.000001">
  <g>
    <path d="M47.06675 17.8813a8.5333529 9.3101931 90 0 0 6.174482-9.7693 8.5333529 9.3101931 90 0 0-9.805108-6.8339 8.5333529 9.3101931 90 0 0-8.620975 8.0642" fill="#44494a" stroke="#44494a" stroke-width="1.395159" stroke-linecap="round" stroke-linejoin="round"/>
    <path d="M33.000886 6.8876a4.5583892 3.7535555 0 0 1 5.106368-2.1982 4.5583892 3.7535555 0 0 1 3.641798 3.6769M50.632308 6.9546A5.6362867 6.4728127 90 0 1 58.6055 9.8778a5.6362867 6.4728127 90 0 1-2.485989 7.2154 5.6362867 6.4728127 90 0 1-8.50441-1.3814" fill="#44494a" stroke="#44494a" stroke-width="1.260568" stroke-linecap="round" stroke-linejoin="round"/>
    <path d="M12.243589 29.981a10.549433 7.2544284 0 0 1-10.4099565-4.4039 10.549433 7.2544284 0 0 1 2.6245325-8.2087M4.898544 17.0424a7.4292927 5.7974129 0 0 1 2.7539708-6.5364 7.4292927 5.7974129 0 0 1 8.8160222.1201" fill="none" stroke="#7c7c7c" stroke-width="2" stroke-linecap="round" stroke-linejoin="round"/>
    <path d="M11.42112 30h25.79113" fill="#fff" fill-rule="evenodd" stroke="#7c7c7c" stroke-width="2"/>
    <path d="M36.944609 11.7756a13.17987 15.173814 90 0 0-12.107777-7.4531 13.17987 15.173814 90 0 0-13.63746 5.083" fill="none" stroke="#7c7c7c" stroke-width="2.2135401" stroke-linecap="round" stroke-linejoin="round"/>
    <path d="M33.863439 13.0514A8.7053146 10.549433 90 0 1 45.08081 15.385a8.7053146 10.549433 90 0 1 1.879454 9.4193 8.7053146 10.549433 90 0 1-9.718509 5.1783" fill="none" stroke="#7c7c7c" stroke-width="2" stroke-linecap="round" stroke-linejoin="round"/>
    <path d="M38.262361 10.9671a13.172982 15.269283 90 0 0-5.255354-5.5591" fill="none" stroke="#fff" stroke-width="1.0028788" stroke-linecap="round" stroke-linejoin="round"/>
    <path d="M38.559642 11.0212a12.873577 15.341052 0 0 1 10.665424 7.5465" fill="none" stroke="#fff" stroke-width="1.4664607" stroke-linecap="round" stroke-linejoin="round"/>
  </g>
</svg>
