<svg xmlns="http://www.w3.org/2000/svg" viewBox="0 0 61.000001 31">
  <g transform="translate(0 -1021.3622)">
    <path d="M49.366711 1039.7365a10.359525 9.4916487 0 0 0 3.738084-11.1559 10.359525 9.4916487 0 0 0-10.894702-6.0454 10.359525 9.4916487 0 0 0-9.058603 8.2037" fill="#201a23"/>
    <ellipse cy="1034.0765" cx="52.792759" rx="7.4254274" ry="6.8401623" fill="#201a23"/>
    <path d="M29.668385 1028.2024a5.2292557 4.5552917 0 0 1 5.780948-3.1407 5.2292557 4.5552917 0 0 1 4.438275 4.5029h-5.229256z" fill="#201a23"/>
    <rect width="6.0098658" height="4.1725059" x="46.986629" y="1036.7399" ry=".2823514" fill="#201a23"/>
    <ellipse ry="6.8401623" rx="7.4254274" cx="52.792759" cy="1034.0765" fill="#201a23"/>
    <path d="M11.825723 1051.3622h25.79113" fill="#fff" fill-rule="evenodd" stroke="#000" stroke-width="1.3895923"/>
    <path d="M12.24359 1051.3432a10.549432 7.2544279 0 0 1-10.4099557-4.4039 10.549432 7.2544279 0 0 1 2.6245323-8.2087M36.352854 1033.2458a11.607085 14.065909 90 0 0-10.979847-6.5406 11.607085 14.065909 90 0 0-12.579987 4.1363M31.279589 1035.5a8.7053137 10.549432 90 0 1 12.364997.1751 8.7053137 10.549432 90 0 1 3.667276 9.746 8.7053137 10.549432 90 0 1-10.070107 5.9236" fill="none" stroke="#7c7c7c" stroke-width="2" stroke-linecap="round" stroke-linejoin="round"/>
    <path d="M4.8985435 1038.4046a7.4292922 5.7974124 0 0 1 1.6567155-5.7916 7.4292922 5.7974124 0 0 1 7.315396-1.6207 7.4292922 5.7974124 0 0 1 5.309529 4.2482" fill="none" stroke="#7c7c7c" stroke-width="2" stroke-linecap="round" stroke-linejoin="round"/>
    <path d="M11.825723 1051.3622h25.79113" fill="#fff" fill-rule="evenodd" stroke="#7c7c7c" stroke-width="2"/>
  </g>
</svg>
