<svg xmlns="http://www.w3.org/2000/svg" viewBox="0 0 61.000001 31">
  <g transform="translate(0 -1021.3622)">
    <path d="M51.254841 1039.7189a9.8995581 10.782222 0 0 0 1.142009-12.3886 9.8995581 10.782222 0 0 0-10.343682-5.3014 9.8995581 10.782222 0 0 0-8.036246 8.8552" fill="#44494a"/>
    <path d="M30.821041 1026.2763a5.2292557 4.5552917 0 0 1 5.711986-1.0304 5.2292557 4.5552917 0 0 1 3.25343 4.2176h-5.229256z" fill="#44494a"/>
    <rect width="6.0098658" height="4.1725059" x="46.885479" y="1036.6388" ry=".2823514" fill="#44494a"/>
    <ellipse ry="6.8401623" rx="7.4254274" cx="52.489304" cy="1033.9755" fill="#44494a"/>
    <path d="M12.24359 1051.3432a10.549432 7.2544279 0 0 1-10.4099557-4.4039 10.549432 7.2544279 0 0 1 2.6245323-8.2087" fill="none" stroke="#7c7c7c" stroke-width="2" stroke-linecap="round" stroke-linejoin="round"/>
    <path d="M36.944595 1033.1378a13.179869 15.173813 90 0 0-12.107776-7.4531 13.179869 15.173813 90 0 0-13.637459 5.083" fill="none" stroke="#7c7c7c" stroke-width="2.2135401" stroke-linecap="round" stroke-linejoin="round"/>
    <path d="M33.86344 1034.4136a8.7053137 10.549432 90 0 1 11.217369 2.3336 8.7053137 10.549432 90 0 1 1.879454 9.4193 8.7053137 10.549432 90 0 1-9.718508 5.1782M4.8985435 1038.4046a7.4292922 5.7974124 0 0 1 2.7539707-6.5364 7.4292922 5.7974124 0 0 1 8.8160218.1201" fill="none" stroke="#7c7c7c" stroke-width="2" stroke-linecap="round" stroke-linejoin="round"/>
    <path d="M11.825723 1051.3622h25.79113" fill="#fff" fill-rule="evenodd" stroke="#7c7c7c" stroke-width="2"/>
  </g>
</svg>
