<svg xmlns="http://www.w3.org/2000/svg" viewBox="0 0 61.000001 31">
  <g transform="translate(0 -1021.3622)">
    <path d="M51.254841 1039.7189a9.8995581 10.782222 0 0 0 1.142009-12.3886 9.8995581 10.782222 0 0 0-10.343682-5.3014 9.8995581 10.782222 0 0 0-8.036246 8.8552" fill="#44494a"/>
    <path d="M30.821041 1026.2763a5.2292557 4.5552917 0 0 1 5.711986-1.0304 5.2292557 4.5552917 0 0 1 3.25343 4.2176h-5.229256z" fill="#44494a"/>
    <rect ry=".2823514" y="1036.6388" x="46.885479" height="4.1725059" width="6.0098658" fill="#44494a"/>
    <ellipse cy="1033.9755" cx="52.489304" rx="7.4254274" ry="6.8401623" fill="#44494a"/>
    <path d="M12.24359 1051.3432a10.549432 7.2544279 0 0 1-10.4099557-4.4039 10.549432 7.2544279 0 0 1 2.6245323-8.2087" fill="none" stroke="#7c7c7c" stroke-width="2" stroke-linecap="round" stroke-linejoin="round"/>
    <path d="M36.944595 1033.1378a13.179869 15.173813 90 0 0-12.107776-7.4531 13.179869 15.173813 90 0 0-13.637459 5.083" fill="none" stroke="#7c7c7c" stroke-width="2.2135401" stroke-linecap="round" stroke-linejoin="round"/>
    <path d="M33.86344 1034.4136a8.7053137 10.549432 90 0 1 11.217369 2.3336 8.7053137 10.549432 90 0 1 1.879454 9.4193 8.7053137 10.549432 90 0 1-9.718508 5.1782M4.8985435 1038.4046a7.4292922 5.7974124 0 0 1 2.7539707-6.5364 7.4292922 5.7974124 0 0 1 8.8160218.1201" fill="none" stroke="#7c7c7c" stroke-width="2" stroke-linecap="round" stroke-linejoin="round"/>
    <path d="M11.825723 1051.3622h25.79113" fill="#fff" fill-rule="evenodd" stroke="#7c7c7c" stroke-width="2"/>
    <g stroke="#44494a">
      <path d="M47.06675 1093.7644a8.5333529 9.3101931 90 0 0 6.174482-9.7693 8.5333529 9.3101931 90 0 0-9.805108-6.8339 8.5333529 9.3101931 90 0 0-8.620975 8.0642" fill="#44494a" stroke-width="1.395159" stroke-linecap="round" stroke-linejoin="round"/>
      <path d="M33.000886 1082.7707a4.5583892 3.7535555 0 0 1 5.106368-2.1982 4.5583892 3.7535555 0 0 1 3.641798 3.6769M50.632308 1082.8377a5.6362867 6.4728127 90 0 1 7.973192 2.9232 5.6362867 6.4728127 90 0 1-2.485989 7.2154 5.6362867 6.4728127 90 0 1-8.50441-1.3814" fill="#44494a" stroke-width="1.260568" stroke-linecap="round" stroke-linejoin="round"/>
      <path d="M47.225824 1093.5077h5.001399" fill="#fff" fill-rule="evenodd" stroke-width="1.8555161"/>
    </g>
    <path d="M12.24359 1105.8641a10.549432 7.2544279 0 0 1-10.4099557-4.404 10.549432 7.2544279 0 0 1 2.6245323-8.2086M4.8985435 1092.9255a7.4292922 5.7974124 0 0 1 2.7539707-6.5364 7.4292922 5.7974124 0 0 1 8.8160218.1201" fill="none" stroke="#7c7c7c" stroke-width="2" stroke-linecap="round" stroke-linejoin="round"/>
    <path d="M11.421115 1105.8831h25.79113" fill="#fff" fill-rule="evenodd" stroke="#7c7c7c" stroke-width="2"/>
    <path d="M36.944595 1087.6587a13.179869 15.173813 90 0 0-12.107776-7.4531 13.179869 15.173813 90 0 0-13.637459 5.083" fill="none" stroke="#7c7c7c" stroke-width="2.2135401" stroke-linecap="round" stroke-linejoin="round"/>
    <path d="M33.86344 1088.9344a8.7053137 10.549432 90 0 1 11.217369 2.3337 8.7053137 10.549432 90 0 1 1.879454 9.4193 8.7053137 10.549432 90 0 1-9.718508 5.1782" fill="none" stroke="#7c7c7c" stroke-width="2" stroke-linecap="round" stroke-linejoin="round"/>
    <g stroke="#7c7c7c">
      <path d="M85.275296 1105.762948a10.549432 7.2544279 0 0 1-10.4099557-4.404 10.549432 7.2544279 0 0 1 2.6245323-8.2086M77.9302495 1092.824348a7.4292922 5.7974124 0 0 1 2.7539707-6.5364 7.4292922 5.7974124 0 0 1 8.8160218.1201" fill="none" stroke-width="2" stroke-linecap="round" stroke-linejoin="round"/>
      <path d="M84.452821 1105.781948h25.79113" fill="#fff" fill-rule="evenodd" stroke-width="2"/>
      <path d="M109.976301 1087.557548a13.179869 15.173813 90 0 0-12.107776-7.4531 13.179869 15.173813 90 0 0-13.637459 5.083" fill="none" stroke-width="2.2135401" stroke-linecap="round" stroke-linejoin="round"/>
      <path d="M106.895146 1088.833248a8.7053137 10.549432 90 0 1 11.217369 2.3337 8.7053137 10.549432 90 0 1 1.879454 9.4193 8.7053137 10.549432 90 0 1-9.718508 5.1782" fill="none" stroke-width="2" stroke-linecap="round" stroke-linejoin="round"/>
    </g>
    <g stroke="#7c7c7c">
      <path d="M12.24359 1105.8641a10.549432 7.2544279 0 0 1-10.4099557-4.404 10.549432 7.2544279 0 0 1 2.6245323-8.2086M4.8985435 1092.9255a7.4292922 5.7974124 0 0 1 2.7539707-6.5364 7.4292922 5.7974124 0 0 1 8.8160218.1201" fill="none" stroke-width="2" stroke-linecap="round" stroke-linejoin="round" transform="matrix(.50907 0 0 .52232 104.05074 517.39442)"/>
      <path d="M11.421115 1105.8831h25.79113" fill="#fff" fill-rule="evenodd" stroke-width="2" transform="matrix(.50907 0 0 .52232 104.05074 517.39442)"/>
      <path d="M-36.944595 1087.6587a15.173813 13.179869 0 0 1 12.107776-7.4531 15.173813 13.179869 0 0 1 13.637459 5.083" transform="matrix(-.50907 0 0 .52232 104.05074 517.39442)" fill="none" stroke-width="2.2135401" stroke-linecap="round" stroke-linejoin="round"/>
      <path transform="matrix(-.50907 0 0 -.52232 104.05074 517.39442)" d="M-33.86344-1088.9344a10.549432 8.7053137 0 0 1-11.217369-2.3337 10.549432 8.7053137 0 0 1-1.879454-9.4193 10.549432 8.7053137 0 0 1 9.718508-5.1782" fill="none" stroke-width="2" stroke-linecap="round" stroke-linejoin="round"/>
    </g>
    <path d="M38.262348 1086.8502a13.172981 15.269282 90 0 0-5.255353-5.5591" fill="none" stroke="#fff" stroke-width="1.0028788" stroke-linecap="round" stroke-linejoin="round"/>
    <path d="M38.559631 1086.9043a12.873576 15.341051 0 0 1 10.665422 7.5465" fill="none" stroke="#fff" stroke-width="1.4664607" stroke-linecap="round" stroke-linejoin="round"/>
  </g>
</svg>
