<svg xmlns="http://www.w3.org/2000/svg" viewBox="0 0 49.000001 29">
  <g stroke="#7c7c7c">
    <path d="M12.3590646 27.519206a10.549433 7.2544284 0 0 1-10.4099565-4.404 10.549433 7.2544284 0 0 1 2.6245325-8.2086M5.0140196 14.580506a7.4292927 5.7974129 0 0 1 2.7539708-6.5363 7.4292927 5.7974129 0 0 1 8.8160222.1201" fill="none" stroke-width="2" stroke-linecap="round" stroke-linejoin="round"/>
    <path d="M11.5365956 27.538106h25.79113" fill="#fff" fill-rule="evenodd" stroke-width="2"/>
    <path d="M37.0600846 9.313806a13.17987 15.173814 90 0 0-12.107777-7.4532 13.17987 15.173814 90 0 0-13.63746 5.0831" fill="none" stroke-width="2.2135401" stroke-linecap="round" stroke-linejoin="round"/>
    <path d="M33.9789146 10.589506a8.7053146 10.549433 90 0 1 11.217371 2.3337 8.7053146 10.549433 90 0 1 1.879454 9.4193 8.7053146 10.549433 90 0 1-9.718509 5.1782" fill="none" stroke-width="2" stroke-linecap="round" stroke-linejoin="round"/>
  </g>
</svg>
