<svg xmlns="http://www.w3.org/2000/svg" viewBox="0 0 55.000001 32.000001">
  <g>
    <path d="M18.007107 27.252a10.549433 7.2544284 0 0 1-10.4099562-4.4039 10.549433 7.2544284 0 0 1 2.6245322-8.2087M10.662062 14.3134a7.4292927 5.7974129 0 0 1 .833963-4.9767 7.4292927 5.7974129 0 0 1 5.498685-2.6038" fill="none" stroke="#7c7c7c" stroke-width="2" stroke-linecap="round" stroke-linejoin="round"/>
    <path d="M17.184637 27.2709h25.79113" fill="#fff" fill-rule="evenodd" stroke="#7c7c7c" stroke-width="2"/>
    <path d="M43.029975 9.6775a13.17987 15.173814 90 0 0-11.903991-8.0276 13.17987 15.173814 90 0 0-14.000049 4.8454" fill="none" stroke="#7c7c7c" stroke-width="2.2135401" stroke-linecap="round" stroke-linejoin="round"/>
    <path d="M43.244626 9.8442a8.7053146 10.549433 90 0 1 10.38305 8.803 8.7053146 10.549433 90 0 1-10.622402 8.6063" fill="none" stroke="#7c7c7c" stroke-width="2" stroke-linecap="round" stroke-linejoin="round"/>
    <path d="M38.176456 26.1752c-.01365 1.0925-.152436 1.3254-.669236 2.4115M27.179764 25.8944c-.461452 1.1825-.508973 1.4399-.452163 2.5277" fill="none" stroke="#fff" stroke-width="2"/>
    <path d="M6.7811129 24.4514l6.3512171.019" fill="none" stroke="#fff" stroke-width="2.1576269"/>
    <path d="M5.6148038 20.3136l2.6041938.032" fill="none" stroke="#fff" stroke-width="2.8320341"/>
    <path d="M6.4577434 16.0068l5.1443366-.1374" fill="none" stroke="#fff" stroke-width="2.2816122"/>
    <path d="M1.0661634 18.0432s22.2806296.073 33.0537796 0c3.722002-.1823 5.072704-1.9635 5.049884-4.1473-.02424-2.3198-1.323525-4.7933-4.421702-4.7965-3.098176 0-5.165587 2.6978-3.93075 5.1155" fill="none" stroke="#0f4880" stroke-width="2" stroke-linecap="round"/>
    <path d="M9.1524764 11.945l2.5977696-.012" fill="none" stroke="#fff" stroke-width="2"/>
    <path d="M1.0976006 13.9397s14.9893584-.087 22.2244414 0c2.323021.018 3.431775-1.7839 3.395402-3.5849-.04048-2.0046-2.057485-3.6485-4.089914-3.4931-2.032429.1554-3.69356 1.1008-4.06934 3.34" fill="none" stroke="#0f4880" stroke-width="2" stroke-linecap="round"/>
    <path fill="#2d383c" stroke="#fff" stroke-width="1.81687" stroke-linecap="round" d="M29.954729 26.9498h5.1417065v.5851768H29.954729z"/>
    <path d="M1.088945 22.5848s20.825238.1015 30.877193 0c2.101127-.021 4.767884 2.0807 4.717349 4.1813-.05624 2.3379-3.454351 4.5054-5.682261 4.0741-2.22791-.4313-3.939957-2.2842-1.929825-4.3957" fill="none" stroke="#0f4880" stroke-width="2" stroke-linecap="round"/>
  </g>
</svg>
