<svg xmlns="http://www.w3.org/2000/svg" viewBox="0 0 60.000001 45">
  <path d="M47.066754 17.6373a8.5333529 9.3101931 90 0 0 6.174482-9.7693 8.5333529 9.3101931 90 0 0-9.805108-6.8339 8.5333529 9.3101931 90 0 0-8.620975 8.0642" fill="#44494a" stroke="#44494a" stroke-width="1.395159" stroke-linecap="round" stroke-linejoin="round"/>
  <path d="M33.00089 6.6436a4.5583892 3.7535555 0 0 1 5.106368-2.1982 4.5583892 3.7535555 0 0 1 3.641797 3.6769M50.632311 6.7105a5.6362867 6.4728127 90 0 1 7.973192 2.9232 5.6362867 6.4728127 90 0 1-2.485988 7.2153 5.6362867 6.4728127 90 0 1-8.504411-1.3814" fill="#44494a" stroke="#44494a" stroke-width="1.260568" stroke-linecap="round" stroke-linejoin="round"/>
  <g stroke="#7c7c7c">
    <path d="M12.243591 29.736892a10.549433 7.2544284 0 0 1-10.4099566-4.404 10.549433 7.2544284 0 0 1 2.6245325-8.2086M4.8985459 16.798192a7.4292927 5.7974129 0 0 1 2.7539708-6.5363 7.4292927 5.7974129 0 0 1 8.8160223.1201" fill="none" stroke-width="2" stroke-linecap="round" stroke-linejoin="round"/>
    <path d="M11.421122 29.755892h25.79113" fill="#fff" fill-rule="evenodd" stroke-width="2"/>
    <path d="M36.944611 11.531492a13.17987 15.173814 90 0 0-12.107777-7.4532 13.17987 15.173814 90 0 0-13.63746 5.0831" fill="none" stroke-width="2.2135401" stroke-linecap="round" stroke-linejoin="round"/>
    <path d="M33.863443 12.807192a8.7053146 10.549433 90 0 1 11.21737 2.3337 8.7053146 10.549433 90 0 1 1.879454 9.4193 8.7053146 10.549433 90 0 1-9.718509 5.1782" fill="none" stroke-width="2" stroke-linecap="round" stroke-linejoin="round"/>
  </g>
  <path d="M38.262362 10.723a13.172982 15.269283 90 0 0-5.255353-5.5591" fill="none" stroke="#fff" stroke-width="1.0028788" stroke-linecap="round" stroke-linejoin="round"/>
  <path d="M38.559646 10.7771a12.873577 15.341052 0 0 1 10.665423 7.5465" fill="none" stroke="#fff" stroke-width="1.4664607" stroke-linecap="round" stroke-linejoin="round"/>
  <path d="M14.419476 22.4479l9.21594-.014-8.411102 10.7666 5.543578.016L7.9531881 43.4338l3.2053469-7.9539-3.1856769-.022z" fill="#aa422f" fill-rule="evenodd" stroke="#aa422f" stroke-width=".5"/>
  <g fill="#1978d4" fill-rule="evenodd">
    <path d="M35.432969 24.5535s-4.272131 2.3479-4.631726 4.4643c-.227392 1.3383.521891 3.2326 1.822426 3.6912 1.300533.4586 3.051237-.5542 3.695273-1.7456 1.018369-1.8841-.885973-6.4099-.885973-6.4099zM41.222147 29.5157s-4.272131 2.3479-4.631726 4.4643c-.227392 1.3383.521891 3.2326 1.822426 3.6912 1.300533.4586 3.051237-.5542 3.695273-1.7456 1.018369-1.8841-.885973-6.4099-.885973-6.4099zM27.824335 29.1849s-4.272131 2.3479-4.631726 4.4643c-.227392 1.3383.521891 3.2326 1.822426 3.6912 1.300533.4586 3.051237-.5542 3.695273-1.7456 1.018369-1.8841-.885973-6.4099-.885973-6.4099zM33.613513 34.6433s-4.272131 2.3479-4.631726 4.4643c-.227392 1.3383.521891 3.2326 1.822426 3.6912 1.300533.4586 3.051237-.5542 3.695273-1.7456 1.018369-1.8841-.885973-6.4099-.885973-6.4099z"/>
  </g>
</svg>
