<?xml version="1.0" encoding="UTF-8" standalone="no"?>
<!-- Created with Inkscape (http://www.inkscape.org/) -->

<svg
   xmlns:dc="http://purl.org/dc/elements/1.1/"
   xmlns:cc="http://creativecommons.org/ns#"
   xmlns:rdf="http://www.w3.org/1999/02/22-rdf-syntax-ns#"
   xmlns:svg="http://www.w3.org/2000/svg"
   xmlns="http://www.w3.org/2000/svg"
   xmlns:sodipodi="http://sodipodi.sourceforge.net/DTD/sodipodi-0.dtd"
   xmlns:inkscape="http://www.inkscape.org/namespaces/inkscape"
   width="61"
   height="45"
   viewBox="0 0 61.000001 45.000001"
   id="svg4258"
   version="1.1"
   inkscape:version="0.91 r13725"
   sodipodi:docname="heavy-shower-rain.svg">
  <defs
     id="defs4260" />
  <sodipodi:namedview
     id="base"
     pagecolor="#ffffff"
     bordercolor="#666666"
     borderopacity="1.0"
     inkscape:pageopacity="0.0"
     inkscape:pageshadow="2"
     inkscape:zoom="10.038598"
     inkscape:cx="20.647568"
     inkscape:cy="19.93018"
     inkscape:document-units="px"
     inkscape:current-layer="layer1"
     showgrid="true"
     units="px"
     inkscape:window-width="1391"
     inkscape:window-height="876"
     inkscape:window-x="49"
     inkscape:window-y="24"
     inkscape:window-maximized="1">
    <inkscape:grid
       type="xygrid"
       id="grid4146" />
  </sodipodi:namedview>
  <metadata
     id="metadata4263">
    <rdf:RDF>
      <cc:Work
         rdf:about="">
        <dc:format>image/svg+xml</dc:format>
        <dc:type
           rdf:resource="http://purl.org/dc/dcmitype/StillImage" />
        <dc:title />
      </cc:Work>
    </rdf:RDF>
  </metadata>
  <g
     inkscape:label="Layer 1"
     inkscape:groupmode="layer"
     id="layer1"
     transform="translate(0,-1007.3622)">
    <g
       id="g15033">
      <g
         transform="translate(0,-13.74694)"
         id="g4164">
        <path
           sodipodi:open="true"
           d="m -47.06675,1039.2435 a 9.3101931,8.5333529 0 0 1 -6.174482,-9.7693 9.3101931,8.5333529 0 0 1 9.805108,-6.8339 9.3101931,8.5333529 0 0 1 8.620975,8.0642"
           sodipodi:end="6.2308254"
           sodipodi:start="1.8936822"
           sodipodi:ry="8.5333529"
           sodipodi:rx="9.3101931"
           sodipodi:cy="1031.1511"
           sodipodi:cx="-44.112583"
           sodipodi:type="arc"
           transform="scale(-1,1)"
           style="opacity:1;fill:#44494a;fill-opacity:1;stroke:#44494a;stroke-width:1.39515901;stroke-linecap:round;stroke-linejoin:round;stroke-miterlimit:4;stroke-dasharray:none;stroke-opacity:1"
           id="path4204" />
        <path
           sodipodi:open="true"
           d="m 33.000886,1028.2498 a 4.5583892,3.7535555 0 0 1 5.106368,-2.1982 4.5583892,3.7535555 0 0 1 3.641798,3.6769"
           sodipodi:end="0"
           sodipodi:start="3.546509"
           sodipodi:ry="3.7535555"
           sodipodi:rx="4.5583892"
           sodipodi:cy="1029.7285"
           sodipodi:cx="37.190662"
           sodipodi:type="arc"
           style="opacity:1;fill:#44494a;fill-opacity:1;stroke:#44494a;stroke-width:1.26056802;stroke-linecap:round;stroke-linejoin:round;stroke-miterlimit:4;stroke-dasharray:none;stroke-opacity:1"
           id="path4208" />
        <path
           transform="scale(-1,-1)"
           style="opacity:1;fill:#44494a;fill-opacity:1;stroke:#44494a;stroke-width:1.26056802;stroke-linecap:round;stroke-linejoin:round;stroke-miterlimit:4;stroke-dasharray:none;stroke-opacity:1"
           id="path4206"
           d="m -50.632308,-1028.3168 a 6.4728127,5.6362867 0 0 1 -7.973192,-2.9232 6.4728127,5.6362867 0 0 1 2.485989,-7.2154 6.4728127,5.6362867 0 0 1 8.50441,1.3814"
           sodipodi:type="arc"
           sodipodi:start="1.2374384"
           sodipodi:end="5.6286868"
           sodipodi:ry="5.6362867"
           sodipodi:rx="6.4728127"
           sodipodi:cy="-1033.6428"
           sodipodi:cx="-52.750328"
           sodipodi:open="true" />
        <path
           style="opacity:1;fill:none;fill-opacity:1;stroke:#7c7c7c;stroke-width:2;stroke-linecap:round;stroke-linejoin:round;stroke-miterlimit:4;stroke-dasharray:none;stroke-opacity:1"
           id="path4190"
           sodipodi:type="arc"
           sodipodi:cx="11.544436"
           sodipodi:cy="1044.1047"
           sodipodi:rx="10.549433"
           sodipodi:ry="7.2544284"
           sodipodi:start="1.5044738"
           sodipodi:end="3.97586"
           d="m 12.243589,1051.3432 a 10.549433,7.2544284 0 0 1 -10.4099565,-4.4039 10.549433,7.2544284 0 0 1 2.6245325,-8.2087"
           sodipodi:open="true" />
        <path
           id="path4196"
           style="opacity:1;fill:none;fill-opacity:1;stroke:#7c7c7c;stroke-width:2;stroke-linecap:round;stroke-linejoin:round;stroke-miterlimit:4;stroke-dasharray:none;stroke-opacity:1"
           sodipodi:type="arc"
           sodipodi:cx="11.956164"
           sodipodi:cy="1036.5939"
           sodipodi:rx="7.4292927"
           sodipodi:ry="5.7974129"
           sodipodi:start="2.8239427"
           sodipodi:end="5.3651421"
           d="m 4.898544,1038.4046 a 7.4292927,5.7974129 0 0 1 2.7539708,-6.5364 7.4292927,5.7974129 0 0 1 8.8160222,0.1201"
           sodipodi:open="true" />
        <path
           style="fill:#ffffff;fill-opacity:1;fill-rule:evenodd;stroke:#7c7c7c;stroke-width:2;stroke-linecap:butt;stroke-linejoin:miter;stroke-miterlimit:4;stroke-dasharray:none;stroke-opacity:1"
           d="m 11.42112,1051.3622 25.79113,0"
           id="path4198"
           inkscape:connector-curvature="0" />
        <path
           id="path4192"
           style="opacity:1;fill:none;fill-opacity:1;stroke:#7c7c7c;stroke-width:2.21354008;stroke-linecap:round;stroke-linejoin:round;stroke-miterlimit:4;stroke-dasharray:none;stroke-opacity:1"
           transform="scale(-1,1)"
           sodipodi:type="arc"
           sodipodi:cx="-23.237568"
           sodipodi:cy="1038.7911"
           sodipodi:rx="15.173814"
           sodipodi:ry="13.17987"
           sodipodi:start="3.5849063"
           sodipodi:end="5.6286868"
           d="m -36.944609,1033.1378 a 15.173814,13.17987 0 0 1 12.107777,-7.4531 15.173814,13.17987 0 0 1 13.63746,5.083"
           sodipodi:open="true" />
        <path
           sodipodi:open="true"
           sodipodi:cx="-37.315403"
           sodipodi:cy="-1042.6396"
           sodipodi:rx="10.549433"
           sodipodi:ry="8.7053146"
           sodipodi:end="4.7193703"
           sodipodi:start="1.2374384"
           sodipodi:type="arc"
           d="m -33.863439,-1034.4136 a 10.549433,8.7053146 0 0 1 -11.217371,-2.3336 10.549433,8.7053146 0 0 1 -1.879454,-9.4193 10.549433,8.7053146 0 0 1 9.718509,-5.1783"
           id="path4194"
           style="opacity:1;fill:none;fill-opacity:1;stroke:#7c7c7c;stroke-width:2;stroke-linecap:round;stroke-linejoin:round;stroke-miterlimit:4;stroke-dasharray:none;stroke-opacity:1"
           transform="scale(-1,-1)" />
        <path
           sodipodi:open="true"
           d="m -38.262361,1032.3293 a 15.269283,13.172982 0 0 1 5.255354,-5.5591"
           sodipodi:end="4.1015237"
           sodipodi:start="3.5499997"
           sodipodi:ry="13.172982"
           sodipodi:rx="15.269283"
           sodipodi:cy="1037.5609"
           sodipodi:cx="-24.248905"
           sodipodi:type="arc"
           transform="scale(-1,1)"
           style="opacity:1;fill:none;fill-opacity:1;stroke:#ffffff;stroke-width:1.00287879;stroke-linecap:round;stroke-linejoin:round;stroke-miterlimit:4;stroke-dasharray:none;stroke-opacity:1"
           id="path4254" />
        <path
           transform="scale(-1,-1)"
           style="opacity:1;fill:none;fill-opacity:1;stroke:#ffffff;stroke-width:1.4664607;stroke-linecap:round;stroke-linejoin:round;stroke-miterlimit:4;stroke-dasharray:none;stroke-opacity:1"
           id="path4256"
           d="m -38.559642,-1032.3834 a 12.873577,15.341052 0 0 1 -10.665424,-7.5465"
           sodipodi:type="arc"
           sodipodi:start="1.6039576"
           sodipodi:end="2.6092672"
           sodipodi:ry="15.341052"
           sodipodi:rx="12.873577"
           sodipodi:cy="-1047.7161"
           sodipodi:cx="-38.132816"
           sodipodi:open="true" />
      </g>
      <path
         sodipodi:nodetypes="csssc"
         inkscape:connector-curvature="0"
         id="path8079-6"
         d="m 19.871982,1033.7517 c 0,0 -4.272131,2.3479 -4.631726,4.4643 -0.227392,1.3383 0.521891,3.2326 1.822426,3.6912 1.300533,0.4586 3.051237,-0.5542 3.695273,-1.7456 1.018369,-1.8841 -0.885973,-6.4099 -0.885973,-6.4099 z"
         style="fill:#1978d4;fill-opacity:1;fill-rule:evenodd;stroke:none;stroke-width:1px;stroke-linecap:butt;stroke-linejoin:miter;stroke-opacity:1" />
      <path
         style="fill:#1978d4;fill-opacity:1;fill-rule:evenodd;stroke:none;stroke-width:1px;stroke-linecap:butt;stroke-linejoin:miter;stroke-opacity:1"
         d="m 25.66116,1038.7139 c 0,0 -4.272131,2.3479 -4.631726,4.4643 -0.227392,1.3383 0.521891,3.2326 1.822426,3.6912 1.300533,0.4586 3.051237,-0.5542 3.695273,-1.7456 1.018369,-1.8841 -0.885973,-6.4099 -0.885973,-6.4099 z"
         id="path8178"
         inkscape:connector-curvature="0"
         sodipodi:nodetypes="csssc" />
      <path
         sodipodi:nodetypes="csssc"
         inkscape:connector-curvature="0"
         id="path8180"
         d="m 12.263348,1038.3831 c 0,0 -4.2721313,2.3479 -4.6317263,4.4643 -0.227392,1.3383 0.5218914,3.2326 1.8224264,3.6912 1.3005329,0.4586 3.0512369,-0.5542 3.6952729,-1.7456 1.018369,-1.8841 -0.885973,-6.4099 -0.885973,-6.4099 z"
         style="fill:#1978d4;fill-opacity:1;fill-rule:evenodd;stroke:none;stroke-width:1px;stroke-linecap:butt;stroke-linejoin:miter;stroke-opacity:1" />
      <path
         style="fill:#1978d4;fill-opacity:1;fill-rule:evenodd;stroke:none;stroke-width:1px;stroke-linecap:butt;stroke-linejoin:miter;stroke-opacity:1"
         d="m 18.052526,1043.8415 c 0,0 -4.272131,2.3479 -4.631726,4.4643 -0.227392,1.3383 0.521891,3.2326 1.822426,3.6912 1.300533,0.4586 3.051237,-0.5542 3.695273,-1.7456 1.018369,-1.8841 -0.885973,-6.4099 -0.885973,-6.4099 z"
         id="path8182"
         inkscape:connector-curvature="0"
         sodipodi:nodetypes="csssc" />
      <path
         sodipodi:nodetypes="csssc"
         inkscape:connector-curvature="0"
         id="path11096"
         d="m 33.372476,1034.7855 c 0,0 -4.272131,2.3479 -4.631726,4.4643 -0.227392,1.3383 0.521891,3.2326 1.822426,3.6912 1.300533,0.4586 3.051237,-0.5542 3.695273,-1.7456 1.018369,-1.8841 -0.885973,-6.4099 -0.885973,-6.4099 z"
         style="fill:#1978d4;fill-opacity:1;fill-rule:evenodd;stroke:none;stroke-width:1px;stroke-linecap:butt;stroke-linejoin:miter;stroke-opacity:1" />
      <path
         style="fill:#1978d4;fill-opacity:1;fill-rule:evenodd;stroke:none;stroke-width:1px;stroke-linecap:butt;stroke-linejoin:miter;stroke-opacity:1"
         d="m 31.044531,1043.5153 c 0,0 -4.272131,2.3479 -4.631726,4.4643 -0.227392,1.3383 0.521891,3.2326 1.822426,3.6912 1.300533,0.4586 3.051237,-0.5542 3.695273,-1.7456 1.018369,-1.8841 -0.885973,-6.4099 -0.885973,-6.4099 z"
         id="path11098"
         inkscape:connector-curvature="0"
         sodipodi:nodetypes="csssc" />
      <path
         sodipodi:nodetypes="csssc"
         inkscape:connector-curvature="0"
         id="path11100"
         d="m 39.48333,1039.4414 c 0,0 -4.272131,2.3479 -4.631726,4.4643 -0.227392,1.3383 0.521891,3.2326 1.822426,3.6912 1.300533,0.4586 3.051237,-0.5542 3.695273,-1.7456 1.018369,-1.8841 -0.885973,-6.4099 -0.885973,-6.4099 z"
         style="fill:#1978d4;fill-opacity:1;fill-rule:evenodd;stroke:none;stroke-width:1px;stroke-linecap:butt;stroke-linejoin:miter;stroke-opacity:1" />
    </g>
  </g>
</svg>
